<?xml version="1.0" encoding="utf-8"?>
<!-- Generator: Adobe Illustrator 25.2.1, SVG Export Plug-In . SVG Version: 6.00 Build 0)  -->
<svg version="1.1" id="Layer_1" xmlns="http://www.w3.org/2000/svg" xmlns:xlink="http://www.w3.org/1999/xlink" x="0px" y="0px"
	 viewBox="0 0 45.11 46.89" style="enable-background:new 0 0 45.11 46.89;" xml:space="preserve">
<style type="text/css">
	.st0{opacity:0.8;fill:url(#SVGID_1_);}
	.st1{fill:url(#SVGID_2_);}
	.st2{fill-rule:evenodd;clip-rule:evenodd;fill:#FFFFFF;}
</style>
<g>
	<radialGradient id="SVGID_1_" cx="22.5556" cy="24.3921" r="21" gradientUnits="userSpaceOnUse">
		<stop  offset="0" style="stop-color:#000057"/>
		<stop  offset="0.2482" style="stop-color:#4C4C89;stop-opacity:0.7518"/>
		<stop  offset="0.5193" style="stop-color:#9898BB;stop-opacity:0.4807"/>
		<stop  offset="0.744" style="stop-color:#D0D0E0;stop-opacity:0.256"/>
		<stop  offset="0.9103" style="stop-color:#F2F2F6;stop-opacity:0.0897"/>
		<stop  offset="1" style="stop-color:#FFFFFF;stop-opacity:0"/>
	</radialGradient>
	<circle class="st0" cx="22.56" cy="24.39" r="21"/>
	
		<linearGradient id="SVGID_2_" gradientUnits="userSpaceOnUse" x1="67.5043" y1="-235.3722" x2="92.2531" y2="-210.6234" gradientTransform="matrix(0 1 -1 0 -206.4926 -63.7606)">
		<stop  offset="0" style="stop-color:#00FB73"/>
		<stop  offset="1" style="stop-color:#00B25B"/>
	</linearGradient>
	<path class="st1" d="M1.88,23.09V9.15c0-4.21,3.44-7.65,7.65-7.65h13.94c4.21,0,7.65,3.44,7.65,7.65v13.94
		c0,4.21-3.44,7.65-7.65,7.65l-13.94,0C5.33,30.74,1.88,27.3,1.88,23.09z"/>
	<path class="st2" d="M21.56,17.45c-0.49-0.29-1.12-0.62-1.69-0.38c-0.44,0.18-0.72,0.87-1,1.22c-0.15,0.18-0.32,0.21-0.54,0.12
		c-1.65-0.66-2.91-1.76-3.82-3.28c-0.15-0.24-0.13-0.42,0.06-0.64c0.28-0.32,0.62-0.69,0.69-1.13c0.07-0.44-0.13-0.95-0.31-1.33
		c-0.23-0.5-0.49-1.2-0.99-1.49c-0.46-0.26-1.06-0.11-1.47,0.22c-0.7,0.57-1.04,1.47-1.03,2.36c0,0.25,0.03,0.5,0.09,0.75
		c0.14,0.59,0.41,1.13,0.72,1.65c0.23,0.39,0.48,0.77,0.75,1.14c0.88,1.2,1.98,2.24,3.25,3.02c0.64,0.39,1.32,0.73,2.03,0.96
		c0.79,0.26,1.5,0.54,2.36,0.37c0.9-0.17,1.78-0.73,2.14-1.59c0.11-0.26,0.16-0.54,0.1-0.81C22.77,18.05,22.01,17.72,21.56,17.45z"
		/>
</g>
</svg>
