<?xml version="1.0" encoding="utf-8"?>
<!-- Generator: Adobe Illustrator 25.2.1, SVG Export Plug-In . SVG Version: 6.00 Build 0)  -->
<svg version="1.1" id="Layer_1" xmlns="http://www.w3.org/2000/svg" xmlns:xlink="http://www.w3.org/1999/xlink" x="0px" y="0px"
	 viewBox="0 0 45.1 46.9" style="enable-background:new 0 0 45.1 46.9;" xml:space="preserve">
<style type="text/css">
	.st0{opacity:0.8;fill:url(#SVGID_1_);enable-background:new    ;}
	.st1{fill:url(#SVGID_2_);}
	.st2{fill:#FFFFFF;}
</style>
<radialGradient id="SVGID_1_" cx="22.56" cy="23.74" r="21.5" gradientTransform="matrix(1 0 0 -1 0 48)" gradientUnits="userSpaceOnUse">
	<stop  offset="0" style="stop-color:#000057"/>
	<stop  offset="0.2482" style="stop-color:#4C4C89;stop-opacity:0.7518"/>
	<stop  offset="0.5193" style="stop-color:#9898BB;stop-opacity:0.4807"/>
	<stop  offset="0.744" style="stop-color:#D0D0E0;stop-opacity:0.256"/>
	<stop  offset="0.9103" style="stop-color:#F2F2F6;stop-opacity:8.970000e-02"/>
	<stop  offset="1" style="stop-color:#FFFFFF;stop-opacity:0"/>
</radialGradient>
<circle class="st0" cx="22.6" cy="24.3" r="21.5"/>
<g>
	
		<linearGradient id="SVGID_2_" gradientUnits="userSpaceOnUse" x1="-399.491" y1="1790.0895" x2="-374.743" y2="1765.3413" gradientTransform="matrix(0 1 1 0 -1761.4158 403.8673)">
		<stop  offset="0" style="stop-color:#1677F1"/>
		<stop  offset="0.1756" style="stop-color:#186EE9"/>
		<stop  offset="0.4613" style="stop-color:#1E56D3"/>
		<stop  offset="0.8194" style="stop-color:#262EB0"/>
		<stop  offset="1" style="stop-color:#2B189C"/>
	</linearGradient>
	<path class="st1" d="M1.7,23.7V9.8c0-4.2,3.4-7.7,7.6-7.7h13.9c4.2,0,7.7,3.4,7.7,7.7v13.9c0,4.2-3.4,7.6-7.6,7.6h-4.7l-2.5-0.6
		L14,31.4H9.3C5.1,31.4,1.7,27.9,1.7,23.7z"/>
	<g>
		<path class="st2" d="M22,21.5l0.6-4.2h-4.1v-2.7c0-1.2,0.6-2.3,2.4-2.3h1.8V8.6c0,0-1.7-0.3-3.3-0.3c-3.3,0-5.5,2-5.5,5.7v3.2
			h-3.7v4.2H14v9.9h4.6v-9.9H22z"/>
	</g>
</g>
</svg>
