<?xml version="1.0" encoding="utf-8"?>
<!-- Generator: Adobe Illustrator 25.2.1, SVG Export Plug-In . SVG Version: 6.00 Build 0)  -->
<svg version="1.1" id="Layer_1" xmlns="http://www.w3.org/2000/svg" xmlns:xlink="http://www.w3.org/1999/xlink" x="0px" y="0px"
	 viewBox="0 0 45.11 46.89" style="enable-background:new 0 0 45.11 46.89;" xml:space="preserve">
<style type="text/css">
	.st0{opacity:0.8;fill:url(#SVGID_1_);}
	.st1{fill:url(#SVGID_2_);}
	.st2{fill:#FFFFFF;}
</style>
<radialGradient id="SVGID_1_" cx="22.5556" cy="24.2568" r="21.5" gradientUnits="userSpaceOnUse">
	<stop  offset="0" style="stop-color:#000057"/>
	<stop  offset="0.2482" style="stop-color:#4C4C89;stop-opacity:0.7518"/>
	<stop  offset="0.5193" style="stop-color:#9898BB;stop-opacity:0.4807"/>
	<stop  offset="0.744" style="stop-color:#D0D0E0;stop-opacity:0.256"/>
	<stop  offset="0.9103" style="stop-color:#F2F2F6;stop-opacity:0.0897"/>
	<stop  offset="1" style="stop-color:#FFFFFF;stop-opacity:0"/>
</radialGradient>
<circle class="st0" cx="22.56" cy="24.26" r="21.5"/>
<g>
	
		<linearGradient id="SVGID_2_" gradientUnits="userSpaceOnUse" x1="20.5118" y1="-296.0886" x2="45.2605" y2="-271.3398" gradientTransform="matrix(0 1 -1 0 -261.4157 -16.1327)">
		<stop  offset="0" style="stop-color:#1677F1"/>
		<stop  offset="0.1756" style="stop-color:#186EE9"/>
		<stop  offset="0.4613" style="stop-color:#1E56D3"/>
		<stop  offset="0.8194" style="stop-color:#262EB0"/>
		<stop  offset="1" style="stop-color:#2B189C"/>
	</linearGradient>
	<path class="st1" d="M7.68,23.73V9.78c0-4.21,3.44-7.65,7.65-7.65h13.94c4.21,0,7.65,3.44,7.65,7.65l0,13.94
		c0,4.21-3.44,7.65-7.65,7.65h-4.69l-2.45-0.6l-2.11,0.6l-4.69,0C11.12,31.37,7.68,27.93,7.68,23.73z"/>
	<g>
		<path class="st2" d="M27.99,21.46l0.65-4.23h-4.06v-2.74c0-1.16,0.57-2.28,2.38-2.28h1.84v-3.6c0,0-1.67-0.29-3.27-0.29
			c-3.34,0-5.52,2.02-5.52,5.69v3.22H16.3v4.23h3.71v9.91h4.57v-9.91H27.99z"/>
	</g>
</g>
</svg>
