<?xml version="1.0" encoding="utf-8"?>
<!-- Generator: Adobe Illustrator 25.2.1, SVG Export Plug-In . SVG Version: 6.00 Build 0)  -->
<svg version="1.1" id="Layer_1" xmlns="http://www.w3.org/2000/svg" xmlns:xlink="http://www.w3.org/1999/xlink" x="0px" y="0px"
	 viewBox="0 0 45.11 46.89" style="enable-background:new 0 0 45.11 46.89;" xml:space="preserve">
<style type="text/css">
	.st0{opacity:0.8;fill:url(#SVGID_1_);}
	.st1{fill:#292828;}
	.st2{fill:#767575;}
	.st3{fill:#797777;}
	.st4{fill:#747272;}
	.st5{fill:#222222;}
	.st6{fill:#272626;}
	.st7{fill:#202020;}
	.st8{fill:#7A7979;}
	.st9{fill:#717070;}
	.st10{fill:#494848;}
	.st11{fill:#464545;}
	.st12{fill:#555454;}
	.st13{fill:#525151;}
	.st14{fill:#4F4E4E;}
	.st15{fill:#252525;}
	.st16{fill:#242424;}
	.st17{fill:#434242;}
	.st18{fill:#2C2B2B;}
	.st19{fill:#737171;}
	.st20{fill:#4C4C4C;}
	.st21{fill:#575656;}
	.st22{fill:#5C5B5B;}
	.st23{fill:#5A5959;}
	.st24{fill:#414040;}
	.st25{fill:#1F1F1F;}
	.st26{fill:#484848;}
	.st27{fill:#373636;}
	.st28{fill:#1E1E1E;}
	.st29{fill:#6E6C6C;}
	.st30{fill:#7D7B7B;}
	.st31{fill:#5F5E5E;}
	.st32{fill:#3C3B3B;}
	.st33{fill:#393939;}
	.st34{fill:#3E3E3E;}
	.st35{fill:#343333;}
	.st36{fill:#333333;}
	.st37{fill:#444343;}
	.st38{fill:#5B5A5A;}
	.st39{fill:#2E2E2E;}
	.st40{fill:#1D1D1D;}
	.st41{fill:#7E7C7C;}
	.st42{fill:#4B4A4A;}
	.st43{fill:#706F6F;}
	.st44{fill:#262626;}
	.st45{fill:#615F5F;}
	.st46{fill:#6E6D6D;}
	.st47{fill:#3F3E3E;}
	.st48{fill:#313030;}
	.st49{fill:#646363;}
	.st50{fill:#1C1C1C;}
	.st51{fill:#807F7F;}
	.st52{fill:#1A1A1A;}
	.st53{fill:#828080;}
	.st54{fill:#686767;}
	.st55{fill:#3A3939;}
	.st56{fill:#656464;}
	.st57{fill:#1B1B1B;}
	.st58{fill:#7F7E7E;}
	.st59{fill:#6A6969;}
	.st60{fill:#636262;}
	.st61{fill:#595858;}
	.st62{fill:#5E5D5D;}
	.st63{fill:#7C7A7A;}
	.st64{fill:#727171;}
	.st65{fill:#616060;}
	.st66{fill:#6B6A6A;}
	.st67{fill:#4D4C4C;}
	.st68{fill:#666565;}
	.st69{fill:#181818;}
	.st70{fill:#313131;}
	.st71{fill:#6A6868;}
	.st72{fill:#4C4B4B;}
	.st73{fill:#6C6B6B;}
	.st74{fill:#302F2F;}
	.st75{fill:#303030;}
	.st76{fill:#FDFCFC;}
	.st77{fill:#383838;}
	.st78{fill:#605F5F;}
	.st79{fill:#404040;}
	.st80{fill:#3E3D3D;}
	.st81{fill:#5D5C5C;}
	.st82{fill:#565555;}
	.st83{fill:#474646;}
	.st84{fill:#383737;}
	.st85{fill:#585757;}
	.st86{fill:#393838;}
	.st87{fill:#424141;}
	.st88{fill:#504F4F;}
	.st89{fill:#535252;}
	.st90{fill:#4E4D4D;}
	.st91{fill:#403F3F;}
	.st92{fill:#4A4949;}
	.st93{fill:#3B3A3A;}
	.st94{fill:#515050;}
	.st95{fill:#454444;}
	.st96{fill:#5C5A5A;}
	.st97{fill:#3D3D3D;}
	.st98{fill:#E4E3E3;}
	.st99{fill:#434343;}
	.st100{fill:#E7E6E6;}
	.st101{fill:#DDDCDC;}
	.st102{fill:#EEEDED;}
	.st103{fill:#FCFBFB;}
	.st104{fill:#DFDEDE;}
	.st105{fill:#DBDADA;}
	.st106{fill:#353535;}
	.st107{fill:#ECEBEB;}
	.st108{fill:#E6E5E5;}
	.st109{fill:#EFEEEE;}
</style>
<radialGradient id="SVGID_1_" cx="22.7558" cy="23.5934" r="21" gradientUnits="userSpaceOnUse">
	<stop  offset="0" style="stop-color:#000057"/>
	<stop  offset="0.2482" style="stop-color:#4C4C89;stop-opacity:0.7518"/>
	<stop  offset="0.5193" style="stop-color:#9898BB;stop-opacity:0.4807"/>
	<stop  offset="0.744" style="stop-color:#D0D0E0;stop-opacity:0.256"/>
	<stop  offset="0.9103" style="stop-color:#F2F2F6;stop-opacity:0.0897"/>
	<stop  offset="1" style="stop-color:#FFFFFF;stop-opacity:0"/>
</radialGradient>
<circle class="st0" cx="22.76" cy="23.59" r="21"/>
<g>
	<path class="st1" d="M18.53,29.99c-0.44,0-0.88,0-1.32,0c-0.08-0.18,0.07-0.26,0.17-0.34c0.6-0.53,1.2-1.07,1.81-1.61
		c0.76-0.66,1.5-1.34,2.26-2c0.1-0.09,0.15-0.21,0.23-0.31c0.25-0.22,0.56-0.34,0.84-0.51c1.34-0.8,2.44-1.85,3.33-3.11
		c0.06-0.08,0.11-0.17,0.19-0.23c0.77-0.52,1.41-1.19,2.11-1.8c0.82-0.71,1.62-1.44,2.43-2.16c0.11-0.09,0.21-0.26,0.4-0.18
		c0,0.4,0,0.8,0,1.2c-0.59,0.56-1.22,1.09-1.82,1.63c-0.64,0.57-1.28,1.14-1.92,1.7c-0.83,0.73-1.65,1.47-2.48,2.2
		c-0.6,0.53-1.21,1.07-1.81,1.61c-0.86,0.77-1.72,1.54-2.59,2.3c-0.57,0.5-1.14,1-1.69,1.51C18.63,29.93,18.59,29.97,18.53,29.99z"
		/>
	<path class="st2" d="M12.96,2.31c0.46,0,0.92,0,1.38,0c0.04,0.13-0.06,0.2-0.14,0.27c-0.89,0.81-1.8,1.6-2.7,2.4
		c-0.8,0.72-1.61,1.43-2.41,2.15c-0.83,0.74-1.67,1.48-2.5,2.22c-0.81,0.71-1.61,1.42-2.41,2.15C3.95,11.7,3.72,11.9,3.5,12.1
		c-0.09,0.08-0.19,0.22-0.36,0.14c0-0.4,0-0.8,0-1.2c0.46-0.52,1.01-0.93,1.52-1.39C5.3,9.06,5.95,8.49,6.6,7.92
		c0.84-0.74,1.68-1.49,2.52-2.24c0.61-0.54,1.22-1.08,1.83-1.63c0.61-0.55,1.23-1.07,1.82-1.63C12.83,2.37,12.89,2.34,12.96,2.31z"
		/>
	<path class="st3" d="M12.96,2.31c-0.48,0.57-1.1,1-1.64,1.52c-0.44,0.42-0.92,0.81-1.38,1.22C9.08,5.8,8.23,6.56,7.38,7.31
		C6.77,7.85,6.16,8.4,5.56,8.94C4.79,9.63,4.02,10.31,3.25,11c-0.03,0.02-0.07,0.03-0.11,0.04c0-0.38,0-0.76,0-1.14
		c0.41-0.41,0.85-0.78,1.29-1.16c0.63-0.56,1.27-1.12,1.9-1.68c0.84-0.74,1.67-1.48,2.5-2.22c0.63-0.56,1.26-1.13,1.9-1.69
		c0.32-0.28,0.62-0.6,0.97-0.84C12.12,2.31,12.54,2.31,12.96,2.31z"/>
	<path class="st4" d="M3.14,12.23c0.37-0.11,0.58-0.44,0.86-0.68c0.65-0.54,1.26-1.13,1.89-1.69c1-0.89,2.01-1.77,3.02-2.66
		c0.62-0.55,1.22-1.1,1.84-1.65c0.82-0.72,1.65-1.43,2.45-2.17c0.39-0.35,0.82-0.66,1.14-1.08c0.32,0,0.64,0,0.96,0
		c0.08,0.16-0.06,0.24-0.15,0.32c-1.35,1.17-2.67,2.36-4,3.54C9.96,7.23,8.77,8.29,7.58,9.35c-1.16,1.03-2.32,2.07-3.49,3.09
		c-0.23,0.2-0.45,0.4-0.67,0.59c-0.08,0.07-0.14,0.18-0.28,0.1C3.14,12.83,3.14,12.53,3.14,12.23z"/>
	<path class="st5" d="M30.99,21.09c0,0.36,0,0.72,0,1.08c-0.6,0.55-1.21,1.1-1.82,1.64c-0.63,0.56-1.27,1.12-1.9,1.68
		c-0.84,0.74-1.67,1.48-2.51,2.22c-0.63,0.56-1.28,1.12-1.9,1.69c-0.22,0.2-0.46,0.39-0.67,0.59c-0.4,0-0.8,0-1.2,0
		c-0.08-0.16,0.06-0.24,0.14-0.32c0.44-0.41,0.89-0.8,1.34-1.2c0.63-0.56,1.27-1.13,1.9-1.69c0.83-0.73,1.65-1.47,2.48-2.2
		c0.63-0.55,1.25-1.11,1.87-1.67c0.62-0.55,1.24-1.09,1.86-1.65C30.69,21.18,30.8,21.01,30.99,21.09z"/>
	<path class="st6" d="M18.53,29.99c0.06-0.15,0.19-0.24,0.31-0.35c0.62-0.54,1.23-1.1,1.84-1.65c0.84-0.74,1.68-1.48,2.52-2.23
		c0.59-0.52,1.17-1.05,1.76-1.57c0.85-0.76,1.71-1.51,2.57-2.27c0.63-0.56,1.25-1.13,1.88-1.69c0.47-0.42,0.94-0.82,1.41-1.23
		c0.04-0.04,0.1-0.05,0.16-0.08c0,0.2,0,0.4,0,0.6c-0.29,0.38-0.68,0.65-1.02,0.96c-0.87,0.78-1.74,1.55-2.61,2.33
		c-0.8,0.72-1.61,1.43-2.42,2.14c-0.8,0.71-1.59,1.42-2.39,2.12c-0.84,0.75-1.68,1.5-2.53,2.24c-0.26,0.22-0.5,0.46-0.77,0.67
		C19.01,29.99,18.77,29.99,18.53,29.99z"/>
	<path class="st7" d="M22.19,29.99c0.02-0.17,0.16-0.25,0.27-0.34c0.71-0.64,1.42-1.27,2.13-1.9c0.98-0.86,1.97-1.72,2.95-2.59
		c0.62-0.55,1.24-1.12,1.86-1.67c0.47-0.42,0.95-0.84,1.43-1.25c0.04-0.04,0.1-0.05,0.16-0.08c0,0.3,0,0.6,0,0.9
		c-0.41,0.43-0.88,0.8-1.33,1.2c-0.64,0.57-1.28,1.14-1.92,1.7c-0.86,0.76-1.71,1.53-2.57,2.28c-0.66,0.58-1.31,1.17-1.97,1.74
		C22.87,29.99,22.53,29.99,22.19,29.99z"/>
	<path class="st8" d="M11.7,2.31c0,0.08-0.05,0.12-0.11,0.17c-0.61,0.54-1.22,1.07-1.83,1.61C8.88,4.87,8,5.64,7.13,6.42
		C6.51,6.97,5.9,7.53,5.29,8.07C4.62,8.66,3.96,9.24,3.29,9.82C3.25,9.86,3.19,9.87,3.14,9.9c0-0.3,0-0.6,0-0.9
		c0.59-0.56,1.21-1.09,1.82-1.63C5.6,6.8,6.23,6.23,6.88,5.67C7.71,4.94,8.52,4.2,9.36,3.47c0.44-0.38,0.85-0.8,1.32-1.16
		C11.02,2.31,11.36,2.31,11.7,2.31z"/>
	<path class="st9" d="M3.14,14.39c0-0.22,0-0.44,0-0.66c1.04-0.93,2.08-1.85,3.13-2.78c0.99-0.87,1.97-1.74,2.95-2.61
		c0.83-0.73,1.65-1.47,2.48-2.21c0.8-0.71,1.61-1.43,2.42-2.14c0.6-0.53,1.2-1.05,1.78-1.6c0.04-0.03,0.08-0.06,0.12-0.08
		c0.18,0,0.36,0,0.54,0c0.08,0.16-0.06,0.24-0.15,0.32c-1.35,1.17-2.66,2.36-4,3.54c-0.35,0.31-0.77,0.58-1.01,1
		c-0.05,0.1-0.15,0.16-0.24,0.22c-0.93,0.62-1.74,1.36-2.43,2.24C8.64,9.75,8.56,9.89,8.42,9.95C8,10.09,7.75,10.44,7.44,10.7
		c-0.85,0.73-1.68,1.48-2.52,2.23c-0.45,0.4-0.9,0.81-1.36,1.21C3.44,14.25,3.33,14.4,3.14,14.39z"/>
	<path class="st10" d="M4.44,29.73c-0.26-0.11-0.48-0.28-0.65-0.49c-0.08-0.15,0.03-0.22,0.12-0.3c1.35-1.17,2.68-2.38,4.02-3.56
		c0.45-0.39,0.9-0.78,1.33-1.19c0.14-0.13,0.27-0.26,0.46-0.31c0.3,0.1,0.52,0.3,0.68,0.57c-0.63,0.58-1.28,1.14-1.92,1.71
		c-0.64,0.57-1.28,1.14-1.92,1.7C5.85,28.47,5.15,29.11,4.44,29.73z"/>
	<path class="st11" d="M4.44,29.73c0.05-0.12,0.13-0.21,0.23-0.3c0.61-0.53,1.21-1.08,1.82-1.62c0.84-0.74,1.68-1.48,2.52-2.22
		c0.39-0.35,0.78-0.7,1.18-1.05c0.05-0.05,0.1-0.1,0.17-0.1c0.28,0.06,0.5,0.21,0.64,0.46c-0.2,0.34-0.54,0.55-0.83,0.8
		c-0.83,0.74-1.66,1.48-2.5,2.22c-0.63,0.56-1.26,1.13-1.89,1.68c-0.13,0.11-0.24,0.23-0.32,0.38C5.1,29.99,4.75,29.91,4.44,29.73z"
		/>
	<path class="st12" d="M28.98,2.36c0.26,0,0.49,0.09,0.71,0.22c0.07,0.13-0.01,0.21-0.1,0.28c-0.51,0.46-1.02,0.92-1.54,1.37
		c-0.62,0.54-1.24,1.09-1.86,1.64c-0.78,0.69-1.55,1.38-2.32,2.07c-0.29-0.12-0.55-0.26-0.7-0.55c0.14-0.3,0.42-0.47,0.66-0.67
		c0.84-0.75,1.68-1.5,2.52-2.24c0.76-0.68,1.53-1.34,2.27-2.03C28.73,2.35,28.84,2.3,28.98,2.36z"/>
	<path class="st13" d="M23.87,7.91c0.16-0.28,0.44-0.45,0.66-0.66c0.45-0.43,0.94-0.83,1.4-1.24c0.85-0.75,1.71-1.51,2.56-2.26
		c0.37-0.33,0.74-0.66,1.11-0.99c0.06-0.05,0.08-0.11,0.08-0.19c0.28,0.13,0.53,0.3,0.7,0.56C29.97,3.6,29.47,3.99,29,4.4
		c-0.67,0.6-1.34,1.19-2,1.79c-0.79,0.71-1.6,1.4-2.38,2.13c-0.06,0.05-0.13,0.1-0.21,0.11C24.15,8.34,23.98,8.15,23.87,7.91z"/>
	<path class="st14" d="M24.41,8.38c0.29-0.25,0.58-0.51,0.87-0.76c1.05-0.93,2.11-1.86,3.16-2.8c0.58-0.51,1.15-1.03,1.73-1.54
		c0.07-0.06,0.12-0.14,0.22-0.14c0.19,0.19,0.35,0.39,0.42,0.66c-0.43,0.46-0.93,0.85-1.39,1.27c-0.66,0.59-1.32,1.18-1.99,1.77
		c-0.65,0.57-1.29,1.16-1.95,1.72c-0.17,0.14-0.31,0.31-0.47,0.46C24.73,8.88,24.55,8.65,24.41,8.38z"/>
	<path class="st15" d="M20.15,29.99c-0.18,0-0.36,0-0.54,0c-0.07-0.11,0.03-0.16,0.09-0.22c0.71-0.67,1.45-1.3,2.18-1.95
		c0.6-0.54,1.21-1.07,1.81-1.61c0.84-0.75,1.68-1.49,2.53-2.24c0.63-0.55,1.25-1.12,1.87-1.67c0.88-0.78,1.75-1.57,2.64-2.33
		c0.07-0.06,0.14-0.16,0.26-0.08c0,0.16,0,0.32,0,0.48c-0.46,0.52-1.01,0.93-1.52,1.39c-0.63,0.58-1.28,1.14-1.92,1.71
		c-0.85,0.75-1.7,1.51-2.55,2.26c-0.6,0.54-1.21,1.07-1.81,1.61c-0.83,0.74-1.66,1.49-2.51,2.22
		C20.51,29.71,20.38,29.91,20.15,29.99z"/>
	<path class="st16" d="M30.99,21.09c-0.41,0.17-0.67,0.52-0.99,0.8c-1.03,0.89-2.03,1.81-3.04,2.72c-0.88,0.79-1.76,1.57-2.65,2.35
		c-0.97,0.86-1.96,1.71-2.93,2.57c-0.15,0.13-0.34,0.25-0.4,0.47c-0.2,0-0.4,0-0.6,0c-0.08-0.15,0.05-0.22,0.13-0.29
		c1.1-0.96,2.19-1.95,3.28-2.92c1.44-1.27,2.87-2.55,4.31-3.82c0.87-0.77,1.74-1.55,2.61-2.32c0.08-0.07,0.15-0.13,0.26-0.1
		C30.99,20.73,30.99,20.91,30.99,21.09z"/>
	<path class="st14" d="M3.19,28.09c-0.1-0.29-0.06-0.6-0.06-0.9c0.43-0.46,0.92-0.85,1.39-1.27c0.62-0.56,1.25-1.11,1.88-1.67
		c0.61-0.54,1.23-1.07,1.83-1.63c0.08-0.08,0.17-0.14,0.29-0.14c0.22,0.13,0.38,0.31,0.44,0.57c-0.05,0.14-0.17,0.22-0.27,0.31
		c-0.69,0.6-1.36,1.22-2.05,1.82c-0.81,0.72-1.62,1.44-2.43,2.15c-0.25,0.22-0.49,0.44-0.74,0.65C3.39,28.06,3.32,28.17,3.19,28.09z
		"/>
	<path class="st17" d="M5.46,29.99c-0.08-0.16,0.04-0.24,0.13-0.33c1.09-0.98,2.19-1.95,3.29-2.92c0.7-0.62,1.41-1.22,2.11-1.83
		c0.3,0.01,0.5,0.19,0.66,0.42c-0.44,0.43-0.92,0.82-1.37,1.23c-0.64,0.57-1.28,1.13-1.92,1.7c-0.61,0.54-1.23,1.07-1.82,1.63
		c-0.05,0.05-0.12,0.07-0.18,0.1C6.06,29.99,5.76,29.99,5.46,29.99z"/>
	<path class="st18" d="M30.99,17.74c-0.4,0.16-0.65,0.51-0.96,0.78C29,19.41,28,20.34,26.97,21.24c-0.28,0.25-0.54,0.53-0.89,0.68
		c-0.06-0.08-0.02-0.15,0.03-0.22c0.37-0.58,0.65-1.19,0.92-1.82c0.02-0.06,0.05-0.11,0.1-0.14c0.31-0.11,0.51-0.37,0.75-0.58
		c0.92-0.83,1.85-1.65,2.78-2.47c0.09-0.08,0.18-0.19,0.33-0.15C30.99,16.94,30.99,17.34,30.99,17.74z"/>
	<path class="st13" d="M8.52,22.53c-0.31,0.13-0.51,0.41-0.75,0.62c-0.83,0.71-1.63,1.45-2.44,2.18c-0.68,0.61-1.37,1.21-2.05,1.81
		c-0.03,0.03-0.09,0.04-0.13,0.06c0-0.34,0-0.68,0-1.02c0.59-0.56,1.21-1.09,1.82-1.63c0.64-0.58,1.29-1.15,1.94-1.72
		c0.31-0.27,0.6-0.55,0.92-0.8c0.09-0.07,0.16-0.16,0.29-0.12C8.29,22.08,8.51,22.23,8.52,22.53z"/>
	<path class="st18" d="M21.71,25.76c-0.12,0.4-0.51,0.57-0.77,0.84c-0.41,0.41-0.88,0.77-1.32,1.16c-0.69,0.61-1.39,1.22-2.07,1.83
		c-0.13,0.12-0.3,0.21-0.33,0.41c-0.44,0-0.88,0-1.32,0c-0.07-0.1,0-0.17,0.07-0.23c0.54-0.48,1.09-0.96,1.63-1.45
		c0.64-0.58,1.32-1.12,1.92-1.74c0.06-0.06,0.14-0.11,0.21-0.16c0.6-0.22,1.21-0.38,1.78-0.66C21.58,25.71,21.65,25.7,21.71,25.76z"
		/>
	<path class="st12" d="M8.09,21.93c-0.41,0.21-0.71,0.56-1.05,0.86c-1.2,1.05-2.38,2.13-3.57,3.19c-0.09,0.08-0.2,0.17-0.33,0.19
		c0-0.34,0-0.68,0-1.02c0.28-0.38,0.67-0.64,1.02-0.95c0.86-0.78,1.74-1.54,2.6-2.32c0.21-0.19,0.44-0.37,0.64-0.57
		c0.08-0.08,0.17-0.14,0.29-0.12C7.88,21.41,8.09,21.61,8.09,21.93z"/>
	<path class="st19" d="M3.14,13.13c0.25-0.08,0.4-0.3,0.58-0.45c0.83-0.71,1.63-1.46,2.45-2.18c1.15-1.02,2.32-2.03,3.47-3.05
		c0.65-0.57,1.28-1.16,1.93-1.74c0.8-0.71,1.61-1.41,2.42-2.12c0.4-0.35,0.8-0.71,1.2-1.07c0.06-0.05,0.12-0.11,0.12-0.2
		c0.16,0,0.32,0,0.48,0c-0.05,0.28-0.29,0.42-0.48,0.58c-0.86,0.76-1.71,1.52-2.57,2.28c-0.81,0.71-1.61,1.42-2.42,2.14
		C9.68,7.88,9.04,8.44,8.41,9c-0.82,0.73-1.64,1.46-2.46,2.18c-0.62,0.55-1.24,1.09-1.85,1.65c-0.22,0.2-0.46,0.38-0.67,0.59
		c-0.08,0.07-0.16,0.15-0.29,0.12C3.14,13.41,3.14,13.27,3.14,13.13z"/>
	<path class="st20" d="M25.01,8.99c0.05-0.21,0.23-0.32,0.38-0.45c0.9-0.81,1.8-1.61,2.71-2.41c0.86-0.76,1.72-1.52,2.59-2.28
		c0.03-0.03,0.09-0.04,0.13-0.06c0.08,0.27,0.22,0.54,0.18,0.84c-0.36,0.12-0.58,0.42-0.85,0.65C29.34,6,28.54,6.71,27.73,7.43
		c-0.63,0.56-1.26,1.13-1.9,1.68c-0.15,0.12-0.26,0.28-0.41,0.39C25.22,9.38,25.03,9.25,25.01,8.99z"/>
	<path class="st21" d="M28.98,2.36c-0.12,0-0.2,0.05-0.29,0.13c-1.01,0.91-2.02,1.82-3.03,2.73c-0.79,0.7-1.58,1.38-2.37,2.08
		c-0.04,0.03-0.06,0.08-0.08,0.12c-0.24,0.02-0.36-0.15-0.52-0.28C22.6,7,22.64,6.91,22.74,6.81c0.51-0.5,1.06-0.96,1.6-1.43
		c0.64-0.57,1.27-1.14,1.92-1.7c0.52-0.46,1.02-0.94,1.57-1.37C28.21,2.32,28.6,2.25,28.98,2.36z"/>
	<path class="st22" d="M25.61,2.31c0.38,0,0.76,0,1.14,0c0.08,0.16-0.06,0.24-0.14,0.32c-0.83,0.71-1.64,1.46-2.46,2.18
		c-0.64,0.57-1.29,1.12-1.92,1.71c-0.07,0.07-0.14,0.15-0.23,0.18c-0.27-0.03-0.51-0.14-0.72-0.31c-0.06-0.16,0.03-0.27,0.13-0.37
		c0.77-0.69,1.54-1.38,2.32-2.06C24.35,3.41,24.96,2.84,25.61,2.31z"/>
	<path class="st23" d="M22,6.69c0.28-0.41,0.7-0.67,1.05-1.01c0.44-0.42,0.92-0.81,1.38-1.22c0.68-0.6,1.35-1.19,2.02-1.79
		c0.11-0.1,0.26-0.19,0.29-0.36c0.36,0,0.72,0,1.08,0c-0.15,0.29-0.44,0.45-0.66,0.66c-0.43,0.41-0.89,0.78-1.34,1.18
		c-0.86,0.75-1.71,1.51-2.56,2.27c-0.18,0.16-0.34,0.33-0.52,0.49c-0.08,0.07-0.02,0.12-0.01,0.19C22.41,7.09,22.19,6.91,22,6.69z"
		/>
	<path class="st24" d="M6.37,29.99c0.49-0.57,1.1-1,1.64-1.52c0.44-0.42,0.91-0.8,1.36-1.2c0.71-0.62,1.41-1.25,2.12-1.87
		c0.04-0.04,0.11-0.05,0.16-0.07c0.26-0.04,0.41,0.13,0.56,0.29c0.03,0.13-0.05,0.2-0.14,0.27c-1.3,1.17-2.61,2.33-3.93,3.49
		c-0.22,0.2-0.45,0.4-0.65,0.62C7.12,29.99,6.74,29.99,6.37,29.99z"/>
	<path class="st25" d="M23.21,29.99c0.17-0.38,0.56-0.55,0.83-0.83c0.41-0.41,0.88-0.77,1.32-1.16c0.89-0.79,1.78-1.58,2.67-2.37
		c0.63-0.56,1.24-1.14,1.89-1.69c0.35-0.3,0.65-0.67,1.07-0.88c0,0.2,0,0.4,0,0.6c-0.27,0.37-0.65,0.61-0.98,0.91
		c-0.63,0.57-1.26,1.12-1.89,1.68c-0.86,0.76-1.72,1.53-2.58,2.3c-0.45,0.4-0.92,0.79-1.35,1.21c-0.09,0.09-0.19,0.18-0.31,0.23
		C23.65,29.99,23.43,29.99,23.21,29.99z"/>
	<path class="st26" d="M30.99,5.23c0,0.3,0,0.6,0,0.9c-0.31,0.4-0.72,0.69-1.09,1.02c-0.84,0.75-1.68,1.5-2.53,2.24
		c-0.41,0.36-0.8,0.75-1.24,1.07c-0.25-0.13-0.38-0.35-0.45-0.61c0.26-0.38,0.66-0.63,0.99-0.94c0.63-0.58,1.28-1.14,1.92-1.7
		c0.72-0.64,1.44-1.28,2.17-1.92C30.82,5.24,30.89,5.16,30.99,5.23z"/>
	<path class="st27" d="M12,29.99c-0.44,0-0.88,0-1.32,0c-0.08-0.18,0.07-0.25,0.16-0.34c0.44-0.41,0.9-0.81,1.35-1.22
		c0.65-0.58,1.31-1.16,1.96-1.74c0.15-0.14,0.31-0.25,0.52-0.24c0.31,0.03,0.62,0.08,0.91,0.19c0.06,0.15-0.06,0.22-0.14,0.3
		c-0.75,0.68-1.5,1.35-2.26,2.02c-0.27,0.24-0.54,0.46-0.8,0.71C12.27,29.8,12.16,29.92,12,29.99z"/>
	<path class="st28" d="M23.87,29.99c0.49-0.57,1.1-1,1.64-1.52c0.42-0.4,0.88-0.77,1.32-1.16c0.88-0.78,1.76-1.55,2.63-2.33
		c0.5-0.45,0.99-0.92,1.53-1.32c0,0.22,0,0.44,0,0.66c-0.46,0.52-1.01,0.93-1.52,1.39c-0.63,0.57-1.27,1.12-1.9,1.69
		c-0.85,0.76-1.71,1.53-2.57,2.28c-0.12,0.1-0.22,0.23-0.36,0.32C24.39,29.99,24.13,29.99,23.87,29.99z"/>
	<path class="st29" d="M3.14,16.3c0-0.38,0-0.76,0-1.14c0.42-0.44,0.9-0.82,1.35-1.22c0.65-0.58,1.31-1.16,1.96-1.75
		c0.24-0.21,0.48-0.42,0.73-0.61c0.08-0.06,0.16-0.17,0.28-0.05c-0.19,0.58-0.37,1.16-0.62,1.72c-0.23,0.07-0.39,0.23-0.56,0.39
		c-0.94,0.86-1.91,1.69-2.86,2.54C3.35,16.26,3.26,16.34,3.14,16.3z"/>
	<path class="st30" d="M9,2.31c0.26,0,0.52,0,0.78,0c0.08,0.18-0.07,0.26-0.17,0.34c-0.6,0.53-1.19,1.06-1.79,1.59
		c-0.64,0.57-1.28,1.14-1.92,1.7C5.1,6.66,4.29,7.37,3.5,8.09C3.4,8.17,3.3,8.31,3.14,8.22c0-0.24,0-0.48,0-0.72
		C4,6.74,4.86,5.97,5.72,5.21C6.82,4.25,7.89,3.26,9,2.31z"/>
	<path class="st31" d="M25.61,2.31c-0.16,0.32-0.48,0.49-0.73,0.73c-0.45,0.43-0.94,0.83-1.4,1.24c-0.66,0.58-1.32,1.17-1.99,1.75
		c-0.1,0.09-0.17,0.19-0.2,0.32c-0.28,0.03-0.51-0.1-0.74-0.24c-0.15-0.17-0.04-0.29,0.08-0.41c0.44-0.42,0.91-0.81,1.36-1.22
		c0.65-0.58,1.3-1.15,1.95-1.73c0.19-0.17,0.37-0.34,0.59-0.45C24.89,2.31,25.25,2.31,25.61,2.31z"/>
	<path class="st11" d="M26.14,10.46c0.24-0.36,0.62-0.59,0.92-0.88c0.45-0.43,0.94-0.83,1.4-1.24c0.79-0.7,1.57-1.4,2.35-2.1
		c0.05-0.05,0.12-0.07,0.18-0.1c0,0.32,0,0.64,0,0.96c-0.97,0.86-1.94,1.72-2.9,2.58c-0.53,0.48-1.09,0.93-1.59,1.45
		C26.27,10.95,26.14,10.74,26.14,10.46z"/>
	<path class="st32" d="M9.48,29.99c-0.36,0-0.72,0-1.08,0c0.03-0.26,0.25-0.37,0.41-0.52c0.87-0.76,1.72-1.54,2.59-2.3
		c0.49-0.43,0.95-0.88,1.45-1.28c0.29,0.03,0.54,0.13,0.77,0.3c0.01,0.14-0.07,0.23-0.16,0.3c-0.78,0.67-1.55,1.37-2.33,2.05
		c-0.46,0.4-0.92,0.79-1.36,1.21C9.7,29.85,9.61,29.94,9.48,29.99z"/>
	<path class="st33" d="M9.48,29.99c0.48-0.57,1.1-1,1.64-1.52c0.42-0.4,0.89-0.76,1.32-1.16c0.39-0.36,0.83-0.68,1.18-1.08
		c0.38-0.05,0.73,0.05,1.03,0.3c-0.12,0-0.23,0.02-0.33,0.11c-0.82,0.75-1.65,1.49-2.47,2.23c-0.33,0.3-0.67,0.59-1,0.89
		c-0.07,0.06-0.16,0.13-0.16,0.24C10.28,29.99,9.88,29.99,9.48,29.99z"/>
	<path class="st34" d="M12.84,25.93c-0.29,0.4-0.7,0.68-1.05,1.01c-0.42,0.39-0.87,0.75-1.3,1.13c-0.66,0.59-1.31,1.18-1.97,1.78
		c-0.04,0.04-0.08,0.09-0.12,0.14c-0.3,0-0.6,0-0.9,0c0.1-0.35,0.44-0.5,0.67-0.73c0.42-0.41,0.89-0.78,1.34-1.18
		c0.85-0.76,1.7-1.52,2.55-2.27c0.06-0.06,0.11-0.11,0.12-0.19C12.44,25.63,12.68,25.7,12.84,25.93z"/>
	<path class="st35" d="M30.99,13.07c0,0.42,0,0.84,0,1.26c-0.09,0.18-0.28,0.25-0.41,0.38c-0.79,0.73-1.6,1.44-2.41,2.15
		c-0.12,0.11-0.25,0.34-0.46,0.09c-0.06-0.37-0.04-0.74-0.01-1.1c0.05-0.17,0.22-0.21,0.34-0.32c0.79-0.72,1.6-1.42,2.4-2.13
		C30.59,13.25,30.72,13.03,30.99,13.07z"/>
	<path class="st36" d="M12,29.99c0.32-0.42,0.76-0.72,1.14-1.08c0.45-0.43,0.93-0.82,1.4-1.23c0.36-0.32,0.72-0.65,1.07-0.97
		c0.07-0.07,0.16-0.09,0.25-0.07c0.32,0.05,0.65,0.01,0.97,0.11c0.04,0.04,0.05,0.08,0,0.12c-0.53,0.45-1.04,0.93-1.56,1.38
		c-0.61,0.54-1.22,1.08-1.83,1.62c-0.05,0.05-0.1,0.09-0.17,0.12C12.84,29.99,12.42,29.99,12,29.99z"/>
	<path class="st37" d="M26.51,11.09c0.04-0.21,0.22-0.31,0.35-0.43c1.1-0.99,2.2-1.98,3.32-2.94c0.26-0.22,0.45-0.55,0.81-0.63
		c0,0.3,0,0.6,0,0.9c-0.27,0.35-0.63,0.6-0.96,0.89c-0.84,0.76-1.69,1.51-2.54,2.26c-0.22,0.19-0.4,0.44-0.7,0.53
		C26.6,11.52,26.49,11.34,26.51,11.09z"/>
	<path class="st38" d="M3.14,23.54c0-0.36,0-0.72,0-1.08c0.99-0.88,1.97-1.77,2.97-2.64c0.16-0.14,0.29-0.3,0.47-0.42
		c0.12-0.08,0.25-0.14,0.38-0.01c0.12,0.22,0.25,0.44,0.23,0.71c-0.45,0.43-0.93,0.83-1.4,1.25c-0.64,0.57-1.28,1.13-1.91,1.7
		c-0.16,0.15-0.34,0.28-0.5,0.42C3.31,23.54,3.24,23.61,3.14,23.54z"/>
	<path class="st39" d="M30.99,16.54c-0.46,0.28-0.82,0.68-1.22,1.03c-0.8,0.7-1.58,1.41-2.37,2.12c-0.07,0.07-0.15,0.09-0.24,0.08
		c-0.06-0.07-0.05-0.15-0.02-0.22c0.12-0.35,0.19-0.72,0.33-1.07c0.25-0.39,0.65-0.61,0.97-0.91c0.69-0.63,1.4-1.24,2.09-1.86
		c0.13-0.12,0.24-0.3,0.47-0.23C30.99,15.82,30.99,16.18,30.99,16.54z"/>
	<path class="st40" d="M24.65,29.99c0.17-0.38,0.56-0.55,0.83-0.83c0.41-0.41,0.88-0.77,1.32-1.16c0.89-0.79,1.78-1.58,2.67-2.37
		c0.43-0.38,0.85-0.77,1.28-1.16c0.07-0.07,0.13-0.16,0.24-0.16c0,0.22,0,0.44,0,0.66c-0.48,0.53-1.05,0.97-1.58,1.45
		c-0.64,0.58-1.29,1.15-1.94,1.72c-0.7,0.61-1.38,1.26-2.11,1.84C25.13,29.99,24.89,29.99,24.65,29.99z"/>
	<path class="st27" d="M30.99,13.07c-0.42,0.2-0.71,0.57-1.05,0.86c-0.63,0.54-1.24,1.11-1.86,1.66c-0.09,0.08-0.18,0.16-0.31,0.17
		c-0.16-0.3-0.14-0.62-0.15-0.94c0.01-0.14,0.07-0.24,0.18-0.33c0.97-0.85,1.93-1.71,2.9-2.57c0.08-0.07,0.16-0.15,0.29-0.11
		C30.99,12.23,30.99,12.65,30.99,13.07z"/>
	<path class="st41" d="M9,2.31C8.84,2.67,8.47,2.84,8.21,3.1C7.79,3.52,7.32,3.88,6.87,4.28C6,5.05,5.12,5.82,4.25,6.6
		C3.98,6.85,3.71,7.1,3.44,7.35c-0.09,0.08-0.16,0.18-0.3,0.16c0-0.22,0-0.44,0-0.66c0.31-0.4,0.71-0.69,1.08-1.02
		c0.67-0.6,1.35-1.21,2.02-1.8c0.6-0.53,1.22-1.05,1.8-1.61c0.05-0.05,0.12-0.07,0.18-0.1C8.48,2.31,8.74,2.31,9,2.31z"/>
	<path class="st42" d="M30.99,5.23c-0.25,0.08-0.4,0.29-0.58,0.45c-0.83,0.72-1.64,1.47-2.46,2.2c-0.74,0.66-1.49,1.31-2.23,1.97
		c-0.21-0.04-0.29-0.18-0.29-0.37c0.03-0.2,0.2-0.29,0.33-0.41c0.69-0.62,1.39-1.24,2.09-1.86c0.92-0.82,1.84-1.64,2.76-2.45
		c0.1-0.08,0.2-0.25,0.38-0.13C30.99,4.83,30.99,5.03,30.99,5.23z"/>
	<path class="st43" d="M7.45,11.52c-0.31,0.1-0.52,0.35-0.76,0.56c-0.66,0.57-1.3,1.17-1.95,1.75c-0.49,0.44-1,0.87-1.5,1.31
		c-0.03,0.02-0.07,0.03-0.11,0.04c0-0.26,0-0.52,0-0.78c0.5-0.35,0.92-0.78,1.38-1.18c0.89-0.77,1.77-1.56,2.65-2.34
		c0.26-0.23,0.51-0.47,0.77-0.7C8.07,10.04,8.2,9.89,8.42,9.9c0.01,0.06-0.02,0.12-0.05,0.16c-0.29,0.38-0.5,0.81-0.71,1.23
		C7.61,11.39,7.59,11.52,7.45,11.52z"/>
	<path class="st43" d="M11.34,7.16c0.08-0.29,0.33-0.44,0.53-0.62c0.43-0.4,0.88-0.77,1.32-1.15c0.87-0.77,1.75-1.52,2.6-2.31
		c0.26-0.24,0.61-0.41,0.77-0.77c0.3,0,0.6,0,0.9,0c0.04,0.13-0.04,0.21-0.12,0.28c-0.77,0.67-1.52,1.35-2.28,2.02
		c-0.47,0.42-0.95,0.82-1.4,1.25c-0.09,0.09-0.18,0.18-0.24,0.3C13.24,6.35,13,6.39,12.78,6.48c-0.4,0.18-0.8,0.34-1.17,0.58
		C11.53,7.11,11.45,7.18,11.34,7.16z"/>
	<path class="st44" d="M30.99,19.89c-0.22,0.07-0.36,0.25-0.52,0.39c-0.83,0.72-1.64,1.47-2.46,2.2c-1.1,0.98-2.21,1.97-3.31,2.95
		c-0.9,0.8-1.8,1.59-2.69,2.39c-0.78,0.69-1.56,1.38-2.34,2.07c-0.03,0.02-0.04,0.07-0.05,0.1c-0.12,0-0.24,0-0.36,0
		c0.16-0.32,0.48-0.49,0.73-0.73c0.44-0.43,0.92-0.81,1.38-1.22c0.86-0.76,1.73-1.52,2.59-2.29c0.62-0.55,1.22-1.1,1.84-1.65
		c0.84-0.74,1.68-1.48,2.52-2.22c0.44-0.39,0.86-0.79,1.31-1.17c0.46-0.39,0.88-0.84,1.38-1.18C30.99,19.65,30.99,19.77,30.99,19.89
		z"/>
	<path class="st45" d="M3.14,21.57c0-0.38,0-0.76,0-1.14c1.02-0.92,2.05-1.83,3.08-2.73c0.09-0.08,0.18-0.17,0.32-0.07
		c0.13,0.31,0.2,0.63,0.18,0.97C5.91,19.28,5.13,20,4.33,20.7c-0.28,0.25-0.57,0.49-0.84,0.75C3.4,21.54,3.3,21.68,3.14,21.57z"/>
	<path class="st42" d="M9.74,23.89c-0.57,0.41-1.07,0.92-1.6,1.38c-0.86,0.75-1.71,1.51-2.56,2.26c-0.56,0.5-1.13,1-1.69,1.5
		c-0.06,0.05-0.11,0.12-0.11,0.2c-0.15-0.1-0.24-0.24-0.3-0.41c-0.02-0.22,0.17-0.31,0.29-0.42c0.99-0.85,1.96-1.72,2.93-2.59
		c0.82-0.73,1.65-1.44,2.45-2.19c0.06-0.05,0.12-0.11,0.2-0.12C9.55,23.57,9.69,23.68,9.74,23.89z"/>
	<path class="st46" d="M13.38,6.15c0.07-0.31,0.34-0.45,0.55-0.64c0.43-0.41,0.9-0.79,1.34-1.18c0.66-0.58,1.32-1.17,1.99-1.75
		c0.09-0.08,0.14-0.17,0.19-0.26c0.34,0,0.68,0,1.02,0c0.08,0.16-0.06,0.24-0.14,0.32c-0.45,0.41-0.91,0.81-1.36,1.21
		c-0.61,0.54-1.22,1.09-1.84,1.62c-0.1,0.09-0.17,0.2-0.24,0.3C14.4,5.95,13.9,6.09,13.38,6.15z"/>
	<path class="st47" d="M30.99,8.88c0,0.34,0,0.68,0,1.02c-0.18,0.24-0.44,0.4-0.66,0.6c-0.9,0.8-1.8,1.59-2.7,2.4
		c-0.09,0.09-0.19,0.18-0.33,0.18c-0.2-0.24-0.26-0.53-0.3-0.83c0.57-0.52,1.15-1.03,1.73-1.54c0.65-0.57,1.29-1.16,1.95-1.71
		C30.78,8.93,30.84,8.81,30.99,8.88z"/>
	<path class="st48" d="M30.99,15.46c-0.41,0.14-0.64,0.5-0.94,0.76c-0.81,0.69-1.57,1.43-2.4,2.09c-0.05,0.04-0.07,0.09-0.11,0.14
		c-0.14-0.21,0.02-0.41,0.02-0.62c0-0.15,0.03-0.29,0.08-0.43c0.06-0.11,0.04-0.25,0.09-0.36c0.01-0.01,0.02-0.02,0.03-0.04
		c0.4-0.09,0.6-0.44,0.89-0.67c0.72-0.6,1.42-1.24,2.12-1.87c0.07-0.06,0.15-0.1,0.22-0.15C30.99,14.71,30.99,15.09,30.99,15.46z"/>
	<path class="st49" d="M6.49,17.62c-0.26,0.06-0.4,0.29-0.58,0.44c-0.83,0.71-1.63,1.45-2.44,2.18c-0.1,0.09-0.2,0.17-0.33,0.19
		c0-0.36,0-0.72,0-1.08c0.25-0.35,0.61-0.59,0.93-0.87c0.68-0.6,1.34-1.22,2.03-1.79c0.1-0.08,0.21-0.29,0.38-0.07
		c0.04,0.24,0.04,0.49,0.08,0.73C6.57,17.44,6.57,17.54,6.49,17.62z"/>
	<path class="st24" d="M30.99,8.88c-0.25,0.08-0.4,0.29-0.58,0.45c-0.83,0.72-1.63,1.48-2.47,2.19c-0.29,0.25-0.51,0.59-0.9,0.71
		c-0.22-0.14-0.29-0.34-0.26-0.59c0.42-0.36,0.84-0.72,1.25-1.09c0.93-0.82,1.85-1.64,2.78-2.46c0.05-0.05,0.12-0.07,0.18-0.1
		C30.99,8.29,30.99,8.58,30.99,8.88z"/>
	<path class="st50" d="M25.37,29.99c0.15-0.29,0.44-0.45,0.66-0.66c0.43-0.41,0.89-0.78,1.34-1.18c0.86-0.75,1.71-1.51,2.57-2.27
		c0.27-0.24,0.53-0.48,0.79-0.72c0.08-0.07,0.14-0.18,0.26-0.18c0,0.24,0,0.48,0,0.72c-1.61,1.44-3.22,2.88-4.85,4.3
		C25.89,29.99,25.63,29.99,25.37,29.99z"/>
	<path class="st51" d="M6.3,2.31c0.36,0,0.72,0,1.08,0c0.04,0.13-0.04,0.21-0.12,0.28c-0.77,0.67-1.53,1.36-2.3,2.03
		c-0.45,0.4-0.91,0.8-1.36,1.21c-0.13,0.12-0.24,0.3-0.47,0.23c0-0.3,0-0.6,0-0.9c0.24-0.35,0.6-0.58,0.91-0.85
		C4.79,3.64,5.55,2.98,6.3,2.31z"/>
	<path class="st52" d="M30.99,26.47c0,0.34,0,0.68,0,1.02c-0.93,0.84-1.88,1.66-2.81,2.5c-0.4,0-0.8,0-1.2,0
		c0.03-0.26,0.25-0.37,0.41-0.52c0.87-0.78,1.76-1.56,2.63-2.34c0.21-0.19,0.43-0.36,0.63-0.55C30.74,26.49,30.84,26.39,30.99,26.47
		z"/>
	<path class="st53" d="M6.3,2.31C6.1,2.72,5.69,2.92,5.38,3.23C4.96,3.64,4.49,4.01,4.05,4.41c-0.3,0.26-0.59,0.54-0.91,0.76
		C3.07,3.84,3.56,2.93,4.6,2.49C5.15,2.25,5.73,2.3,6.3,2.31z"/>
	<path class="st54" d="M20.51,2.31c0.36,0,0.72,0,1.08,0c0.08,0.18-0.07,0.26-0.17,0.34c-0.63,0.56-1.26,1.13-1.9,1.69
		c-0.38,0.33-0.74,0.67-1.12,0.99c-0.07,0.06-0.12,0.11-0.02,0.19c0.07,0.06,0.02,0.1-0.05,0.13c-0.39-0.01-0.79-0.02-1.18-0.05
		c-0.19-0.1-0.08-0.21,0-0.31c0.18-0.22,0.43-0.39,0.64-0.58C18.71,3.91,19.59,3.09,20.51,2.31z"/>
	<path class="st55" d="M30.99,11.82c-0.27,0.13-0.46,0.35-0.67,0.54c-0.85,0.73-1.68,1.48-2.52,2.23c-0.06,0.05-0.09,0.1-0.1,0.18
		c-0.23-0.18-0.14-0.44-0.19-0.67c-0.03-0.29,0.11-0.48,0.32-0.67c0.89-0.77,1.76-1.55,2.64-2.34c0.15-0.14,0.29-0.31,0.53-0.29
		C30.99,11.14,30.99,11.48,30.99,11.82z"/>
	<path class="st56" d="M18.41,5.58c-0.26-0.07-0.22-0.17-0.06-0.32c0.68-0.6,1.36-1.21,2.05-1.81c0.33-0.29,0.67-0.59,1-0.88
		c0.08-0.07,0.18-0.13,0.18-0.26c0.38,0,0.76,0,1.14,0c0.02,0.13-0.07,0.2-0.15,0.27c-0.82,0.7-1.62,1.43-2.42,2.15
		c-0.35,0.32-0.77,0.58-1.01,1.02C18.89,5.74,18.62,5.79,18.41,5.58z"/>
	<path class="st57" d="M30.99,26.47c-0.39,0.11-0.59,0.45-0.88,0.69c-0.91,0.77-1.79,1.57-2.67,2.36c-0.16,0.15-0.3,0.31-0.46,0.47
		c-0.28,0-0.56,0-0.84,0c0.16-0.36,0.53-0.53,0.79-0.79c0.42-0.42,0.89-0.78,1.34-1.18c0.82-0.73,1.64-1.47,2.45-2.21
		c0.08-0.07,0.16-0.11,0.26-0.13C30.99,25.95,30.99,26.21,30.99,26.47z"/>
	<path class="st21" d="M7.67,21.21c-0.31,0.15-0.52,0.43-0.77,0.65c-1.03,0.89-2.02,1.82-3.05,2.72c-0.23,0.2-0.42,0.45-0.71,0.58
		c0-0.28,0-0.56,0-0.84c0.97-0.86,1.93-1.72,2.91-2.58c0.37-0.32,0.72-0.66,1.1-0.97c0.08-0.06,0.14-0.14,0.26-0.13
		C7.58,20.78,7.7,20.96,7.67,21.21z"/>
	<path class="st58" d="M3.14,6.07C3.51,5.96,3.72,5.63,4,5.4c0.65-0.54,1.26-1.13,1.89-1.69c0.43-0.38,0.87-0.76,1.3-1.13
		C7.28,2.5,7.33,2.41,7.38,2.31c0.28,0,0.56,0,0.84,0c-0.48,0.57-1.1,1-1.64,1.52c-0.45,0.43-0.94,0.83-1.4,1.24
		C4.56,5.63,3.94,6.19,3.32,6.74C3.27,6.79,3.2,6.81,3.14,6.85C3.14,6.59,3.14,6.33,3.14,6.07z"/>
	<path class="st39" d="M19.73,26.47c-0.37,0.35-0.74,0.71-1.13,1.04c-0.87,0.75-1.72,1.52-2.58,2.28c-0.06,0.05-0.12,0.11-0.12,0.2
		c-0.34,0-0.68,0-1.02,0c0.05-0.29,0.31-0.43,0.5-0.6c0.96-0.87,1.96-1.7,2.89-2.6c0.06-0.06,0.12-0.11,0.19-0.14
		c0.34-0.11,0.7-0.14,1.05-0.22C19.59,26.41,19.67,26.41,19.73,26.47z"/>
	<path class="st59" d="M20.51,2.31C20.36,2.66,20,2.82,19.74,3.08c-0.41,0.4-0.86,0.75-1.29,1.13c-0.39,0.35-0.78,0.7-1.17,1.05
		C17.2,5.33,17.1,5.4,17.09,5.52c-0.29,0.19-0.62,0.07-0.92,0.09c-0.22-0.12-0.24-0.18-0.07-0.33c0.53-0.48,1.07-0.95,1.6-1.43
		c0.5-0.44,1.01-0.88,1.49-1.33c0.09-0.08,0.18-0.16,0.29-0.21C19.83,2.31,20.17,2.31,20.51,2.31z"/>
	<path class="st60" d="M19.19,5.7c-0.09-0.12-0.01-0.2,0.07-0.27c0.69-0.61,1.39-1.21,2.06-1.84c0.46-0.43,0.97-0.81,1.4-1.28
		c0.3,0,0.6,0,0.9,0c0.08,0.16-0.06,0.24-0.15,0.32c-1.12,0.99-2.23,1.97-3.34,2.97c-0.1,0.09-0.22,0.17-0.21,0.33
		C19.67,5.93,19.4,5.91,19.19,5.7z"/>
	<path class="st61" d="M7.39,20.67c-0.53,0.45-1.06,0.9-1.57,1.36c-0.81,0.72-1.61,1.44-2.41,2.17c-0.08,0.07-0.16,0.11-0.26,0.13
		c0-0.26,0-0.52,0-0.78c0.22-0.06,0.36-0.25,0.51-0.39c0.83-0.72,1.63-1.48,2.46-2.19c0.33-0.29,0.61-0.65,1.03-0.83
		C7.3,20.28,7.42,20.44,7.39,20.67z"/>
	<path class="st62" d="M3.14,21.57c0.11,0.01,0.18-0.05,0.26-0.12c1-0.9,2.01-1.8,3.01-2.71c0.08-0.07,0.16-0.12,0.27-0.11
		c0.19,0.23,0.31,0.47,0.23,0.78c-0.21-0.11-0.31,0.07-0.43,0.17c-1.02,0.91-2.03,1.82-3.05,2.74c-0.08,0.07-0.17,0.13-0.29,0.15
		C3.14,22.16,3.14,21.87,3.14,21.57z"/>
	<path class="st32" d="M30.99,10.8c-0.39,0.16-0.64,0.5-0.95,0.76c-0.76,0.64-1.48,1.31-2.23,1.97c-0.16,0.14-0.27,0.29-0.24,0.51
		c-0.18-0.17-0.31-0.71-0.24-0.96c0.59-0.53,1.18-1.05,1.77-1.58c0.44-0.39,0.88-0.77,1.31-1.17c0.18-0.16,0.36-0.31,0.57-0.42
		C30.99,10.2,30.99,10.5,30.99,10.8z"/>
	<path class="st63" d="M3.14,8.22c0.37-0.11,0.58-0.44,0.86-0.67c0.67-0.56,1.3-1.17,1.95-1.75c0.8-0.71,1.61-1.41,2.41-2.12
		C8.78,3.32,9.19,2.95,9.6,2.57C9.68,2.5,9.78,2.44,9.78,2.31c0.18,0,0.36,0,0.54,0c0.07,0.1,0,0.17-0.07,0.23
		C9.7,3.03,9.15,3.52,8.6,4.01C7.97,4.56,7.35,5.12,6.72,5.67C5.88,6.41,5.04,7.17,4.2,7.91C3.93,8.14,3.69,8.38,3.42,8.6
		C3.34,8.67,3.27,8.78,3.14,8.7C3.14,8.54,3.14,8.38,3.14,8.22z"/>
	<path class="st64" d="M3.14,13.55c0.5-0.35,0.92-0.79,1.38-1.18c0.87-0.75,1.73-1.52,2.59-2.28c0.62-0.55,1.24-1.12,1.86-1.67
		c0.83-0.74,1.67-1.47,2.5-2.2c0.54-0.48,1.09-0.96,1.63-1.44c0.84-0.76,1.68-1.52,2.52-2.27c0.06-0.05,0.11-0.12,0.16-0.18
		c0.08,0,0.16,0,0.24,0c-0.17,0.35-0.51,0.53-0.77,0.77c-0.65,0.61-1.33,1.19-2,1.78c-0.81,0.71-1.63,1.43-2.44,2.14
		c-0.43,0.38-0.85,0.77-1.29,1.15C8.66,8.92,7.8,9.67,6.95,10.43c-0.6,0.53-1.2,1.07-1.8,1.61c-0.6,0.54-1.2,1.07-1.79,1.61
		c-0.06,0.06-0.13,0.08-0.22,0.08C3.14,13.67,3.14,13.61,3.14,13.55z"/>
	<path class="st65" d="M19.97,5.89c-0.13-0.11-0.07-0.19,0.04-0.28c0.68-0.6,1.35-1.2,2.03-1.8c0.45-0.4,0.91-0.79,1.37-1.19
		c0.09-0.08,0.21-0.15,0.23-0.3c0.3,0,0.6,0,0.9,0c-0.44,0.4-0.87,0.81-1.31,1.2c-0.42,0.37-0.86,0.73-1.28,1.11
		C21.51,5,21.09,5.39,20.66,5.77c-0.09,0.08-0.19,0.16-0.09,0.3C20.33,6.16,20.13,6.08,19.97,5.89z"/>
	<path class="st66" d="M3.14,16.3c0.3-0.15,0.51-0.41,0.76-0.62c0.91-0.78,1.8-1.59,2.7-2.39c0.05-0.05,0.1-0.14,0.19-0.04
		c0.09,0.36-0.07,0.67-0.16,1c-0.49,0.25-0.84,0.66-1.24,1.01c-0.63,0.55-1.26,1.11-1.89,1.68c-0.09,0.08-0.19,0.22-0.36,0.13
		C3.14,16.82,3.14,16.56,3.14,16.3z"/>
	<path class="st67" d="M3.19,28.09c0.24-0.07,0.38-0.28,0.56-0.43c0.82-0.7,1.61-1.44,2.42-2.16c0.92-0.82,1.85-1.62,2.77-2.44
		c0.19,0,0.27,0.11,0.27,0.29c-0.16,0.25-0.41,0.41-0.62,0.6c-1.35,1.18-2.68,2.39-4.03,3.57c-0.29,0.26-0.59,0.5-0.86,0.78
		c-0.11,0.11-0.22,0.24-0.41,0.16C3.23,28.34,3.17,28.23,3.19,28.09z"/>
	<path class="st68" d="M6.41,16.54c-0.49,0.3-0.87,0.74-1.31,1.11c-0.61,0.52-1.19,1.06-1.79,1.6c-0.05,0.04-0.12,0.07-0.18,0.1
		c0-0.28,0-0.56,0-0.84c0.98-0.88,1.96-1.76,2.97-2.62c0.1-0.08,0.22-0.29,0.38-0.06C6.51,16.08,6.58,16.32,6.41,16.54z"/>
	<path class="st69" d="M28.18,29.99c0.06-0.22,0.25-0.33,0.4-0.47c0.69-0.62,1.39-1.23,2.08-1.85c0.1-0.09,0.19-0.17,0.33-0.19
		c0,0.06,0,0.12,0,0.18c-0.04,0.1,0,0.22-0.04,0.33c-0.09,0.94-0.93,1.83-1.96,1.95c-0.1,0.05-0.22,0-0.32,0.04
		C28.5,29.99,28.34,29.99,28.18,29.99z"/>
	<path class="st54" d="M6.41,15.76c-0.44,0.26-0.78,0.64-1.16,0.96c-0.63,0.54-1.24,1.11-1.85,1.66c-0.07,0.07-0.16,0.11-0.26,0.13
		c0-0.26,0-0.52,0-0.78c0.99-0.84,1.96-1.72,2.93-2.58c0.22-0.2,0.29-0.2,0.43,0.02C6.5,15.38,6.57,15.59,6.41,15.76z"/>
	<path class="st63" d="M3.14,8.7c0.25-0.08,0.4-0.29,0.58-0.45c0.85-0.73,1.67-1.5,2.51-2.24c1.15-1.02,2.32-2.02,3.46-3.05
		c0.22-0.2,0.5-0.36,0.64-0.64c0.12,0,0.24,0,0.36,0C10.51,2.62,10.2,2.8,9.95,3.04C9.53,3.45,9.06,3.82,8.61,4.21
		C7.76,4.97,6.9,5.72,6.05,6.48C5.43,7.03,4.83,7.61,4.19,8.14C3.84,8.43,3.58,8.83,3.14,9C3.14,8.9,3.14,8.8,3.14,8.7z"/>
	<path class="st70" d="M13.26,29.99c0.05-0.12,0.15-0.2,0.25-0.28c0.63-0.55,1.25-1.11,1.86-1.67c0.42-0.38,0.89-0.71,1.25-1.15
		c0.07-0.08,0.17-0.05,0.25-0.07c0.37-0.15,0.76-0.19,1.15-0.08c0.08,0.17-0.08,0.13-0.15,0.17c-0.21,0-0.39,0.01-0.57,0.17
		c-1.08,0.98-2.18,1.94-3.27,2.92C13.78,29.99,13.52,29.99,13.26,29.99z"/>
	<path class="st71" d="M6.43,15.12c-0.11-0.14-0.19-0.04-0.27,0.03c-0.81,0.73-1.61,1.46-2.43,2.17c-0.18,0.15-0.32,0.39-0.6,0.41
		c0-0.22,0-0.44,0-0.66c0.37-0.11,0.58-0.44,0.86-0.67c0.67-0.56,1.29-1.17,1.95-1.74c0.18-0.16,0.32-0.4,0.61-0.39
		c0.02,0.03,0.02,0.05,0.02,0.09c-0.01,0.11-0.01,0.21,0,0.32C6.54,14.83,6.63,15.02,6.43,15.12z"/>
	<path class="st72" d="M3.29,28.45c0.15-0.02,0.25-0.1,0.36-0.2c1.07-0.96,2.15-1.91,3.23-2.87c0.63-0.56,1.25-1.13,1.88-1.69
		c0.14-0.12,0.3-0.23,0.45-0.34c0.1,0.02,0.16,0.08,0.17,0.18c-0.42,0.37-0.85,0.74-1.27,1.11c-0.89,0.79-1.78,1.57-2.66,2.36
		c-0.57,0.51-1.14,1.01-1.71,1.52c-0.09,0.09-0.17,0.19-0.25,0.29C3.38,28.72,3.33,28.59,3.29,28.45z"/>
	<path class="st16" d="M30.99,20.55c-0.26,0.12-0.44,0.34-0.65,0.52c-0.87,0.76-1.7,1.55-2.57,2.31c-1.07,0.93-2.13,1.88-3.19,2.83
		c-0.91,0.82-1.82,1.63-2.74,2.44c-0.42,0.37-0.86,0.74-1.28,1.11c-0.07,0.06-0.16,0.12-0.16,0.24c-0.08,0-0.16,0-0.24,0
		c0.47-0.55,1.06-0.96,1.58-1.46c0.43-0.41,0.89-0.78,1.34-1.18c0.87-0.77,1.74-1.54,2.61-2.31c0.58-0.51,1.16-1.03,1.73-1.55
		c0.86-0.76,1.73-1.52,2.59-2.29c0.25-0.22,0.48-0.44,0.73-0.66c0.08-0.07,0.14-0.18,0.26-0.18C30.99,20.43,30.99,20.49,30.99,20.55
		z"/>
	<path class="st73" d="M19.49,2.31c-0.48,0.56-1.08,0.99-1.61,1.5c-0.47,0.45-0.98,0.87-1.47,1.3c-0.09,0.08-0.19,0.14-0.27,0.23
		c-0.06,0.05-0.18,0.1-0.05,0.21c-0.16,0.24-0.41,0.1-0.62,0.15c-0.21-0.16-0.05-0.28,0.06-0.38c0.39-0.35,0.78-0.7,1.18-1.05
		c0.66-0.58,1.31-1.15,1.96-1.74c0.09-0.08,0.18-0.16,0.29-0.21C19.13,2.31,19.31,2.31,19.49,2.31z"/>
	<path class="st74" d="M17.81,26.83c0.08-0.01,0.18,0.03,0.24-0.07c0.1-0.18,0.23-0.14,0.36-0.04c-0.53,0.62-1.19,1.1-1.79,1.66
		c-0.58,0.54-1.23,1.01-1.75,1.61c-0.16,0-0.32,0-0.48,0c0.05-0.28,0.29-0.41,0.48-0.58c0.89-0.79,1.79-1.58,2.67-2.39
		C17.63,26.95,17.72,26.89,17.81,26.83z"/>
	<path class="st73" d="M18.95,2.31c-0.46,0.55-1.05,0.96-1.57,1.45c-0.43,0.41-0.89,0.78-1.34,1.17c-0.13,0.12-0.25,0.25-0.4,0.35
		c-0.12,0.08-0.25,0.18-0.23,0.36c-0.16,0.13-0.34,0.18-0.54,0.08c0.01-0.17,0.15-0.25,0.26-0.35c0.98-0.87,1.96-1.72,2.94-2.59
		c0.15-0.13,0.34-0.25,0.4-0.47C18.63,2.31,18.79,2.31,18.95,2.31z"/>
	<path class="st75" d="M17.81,26.83c-0.33,0.43-0.77,0.74-1.16,1.1c-0.43,0.41-0.9,0.77-1.33,1.18c-0.31,0.29-0.67,0.53-0.92,0.88
		c-0.12,0-0.24,0-0.36,0c0.06-0.22,0.25-0.33,0.4-0.47c0.68-0.62,1.38-1.23,2.07-1.83c0.3-0.26,0.6-0.51,0.88-0.8
		C17.5,26.77,17.67,26.85,17.81,26.83z"/>
	<path class="st52" d="M30.95,28c0-0.11-0.04-0.23,0.04-0.33C31,27.78,31.01,27.89,30.95,28z"/>
	<path class="st52" d="M28.66,29.99c0.1-0.08,0.21-0.04,0.32-0.04C28.88,30.01,28.77,30,28.66,29.99z"/>
	<path class="st76" d="M14.88,5.72c0.18-0.03,0.36-0.05,0.54-0.08c0.22-0.04,0.45-0.07,0.67-0.11c0.34,0,0.67-0.01,1.01-0.01
		c0.44,0.02,0.88,0.04,1.32,0.06c0.26,0.04,0.52,0.08,0.78,0.12c0.26,0.06,0.52,0.12,0.78,0.18c0.2,0.06,0.4,0.12,0.6,0.18
		c0.22,0.14,0.48,0.18,0.72,0.28c0.24,0.11,0.47,0.22,0.71,0.33c0.24,0.13,0.48,0.27,0.73,0.4c0.16,0.11,0.32,0.21,0.47,0.32
		c0.22,0.17,0.45,0.34,0.67,0.5c0.18,0.16,0.36,0.32,0.54,0.47c0.2,0.2,0.4,0.4,0.6,0.61c0.14,0.16,0.28,0.33,0.42,0.49
		c0.08,0.14,0.17,0.27,0.29,0.37c0.14,0.2,0.28,0.4,0.42,0.61c0.12,0.21,0.25,0.42,0.37,0.63c0.09,0.18,0.18,0.37,0.27,0.55
		c0.09,0.2,0.17,0.39,0.26,0.59c0.1,0.28,0.2,0.57,0.3,0.85c0.08,0.32,0.16,0.64,0.24,0.96c0.02,0.24,0.05,0.48,0.12,0.72
		c0.02,0.34,0.05,0.67,0.07,1.01c-0.01,0.42-0.01,0.83-0.02,1.25c0,0,0,0,0,0c-0.06,0.12,0.01,0.25-0.05,0.37
		c-0.06,0.36-0.12,0.72-0.18,1.08c-0.13,0.44-0.25,0.88-0.38,1.31c-0.3,0.75-0.66,1.46-1.07,2.16c-0.74,1.06-1.59,2.01-2.64,2.78
		c-0.55,0.4-1.14,0.73-1.73,1.06c-0.65,0.28-1.3,0.52-1.98,0.71c-0.44,0.08-0.88,0.16-1.32,0.24c-0.12,0-0.25-0.01-0.36,0.04
		c-0.39,0.02-0.78,0.04-1.18,0.06c-0.42-0.04-0.84-0.08-1.26-0.12c-0.32-0.06-0.64-0.12-0.96-0.18c-0.34-0.1-0.68-0.2-1.03-0.3
		c-0.26-0.1-0.52-0.2-0.78-0.3c-0.22-0.1-0.44-0.21-0.66-0.31c-0.18-0.1-0.35-0.19-0.53-0.29c-0.22-0.14-0.44-0.28-0.66-0.42
		c-0.21-0.16-0.42-0.31-0.64-0.47c-0.21-0.18-0.41-0.36-0.62-0.55c-0.1-0.14-0.22-0.26-0.36-0.36c-0.06-0.06-0.11-0.12-0.17-0.18
		c-0.07-0.11-0.15-0.21-0.26-0.29c-0.14-0.18-0.29-0.36-0.43-0.54c-0.14-0.2-0.28-0.4-0.43-0.6c-0.14-0.24-0.28-0.48-0.42-0.72
		c-0.09-0.18-0.19-0.36-0.28-0.54c-0.08-0.18-0.16-0.36-0.25-0.54c-0.04-0.25-0.15-0.48-0.24-0.72c-0.08-0.26-0.15-0.52-0.23-0.78
		c-0.06-0.34-0.12-0.68-0.19-1.02c-0.02-0.36-0.05-0.72-0.07-1.08c0-0.26,0-0.52,0-0.78c0.01-0.21,0.01-0.43,0.02-0.64
		c0.06-0.15,0.06-0.32,0.06-0.48c0.06-0.1-0.01-0.22,0.05-0.31c0.01-0.02,0.02-0.03,0.01-0.05c0.08-0.34,0.16-0.68,0.24-1.02
		c0.18-0.5,0.37-1,0.54-1.51c0.03-0.09,0.1-0.14,0.12-0.23c0.29-0.45,0.46-0.96,0.79-1.37C8.3,10.07,8.36,9.98,8.42,9.9
		c0.82-1.08,1.8-1.99,2.93-2.75c0.55-0.4,1.18-0.64,1.8-0.9c0.08-0.03,0.16-0.07,0.24-0.11C13.88,6.01,14.38,5.86,14.88,5.72z"/>
	<path class="st35" d="M27.71,17.38c-0.01-0.12-0.01-0.25,0.05-0.37C27.75,17.13,27.81,17.27,27.71,17.38z"/>
	<path class="st66" d="M6.54,14.33c0,0.11,0.01,0.22-0.05,0.31C6.5,14.54,6.44,14.42,6.54,14.33z"/>
	<path class="st48" d="M26.09,18.77c-0.13,0.54-0.31,1.05-0.61,1.52c-0.29,0.13-0.48,0.38-0.71,0.58c-1,0.9-2.01,1.79-3.02,2.68
		c-0.48,0.42-0.94,0.86-1.44,1.26c-0.08,0.06-0.19,0.26-0.31,0.03c0-0.31,0-0.62,0-0.92c0-0.13,0.11-0.18,0.19-0.25
		c1.09-0.94,2.15-1.9,3.22-2.85c0.74-0.66,1.48-1.3,2.21-1.97c0.09-0.08,0.18-0.16,0.29-0.21C26.05,18.58,26.14,18.59,26.09,18.77z"
		/>
	<path class="st35" d="M26.09,18.77c-0.03-0.18-0.11-0.11-0.2-0.04c-0.25,0.21-0.5,0.41-0.75,0.63c-0.64,0.57-1.26,1.15-1.9,1.71
		c-1.02,0.91-2.05,1.81-3.08,2.71c-0.03,0.03-0.09,0.04-0.13,0.06c-0.08-0.27-0.02-0.54-0.04-0.81c-0.01-0.1,0.05-0.16,0.12-0.22
		c1.24-1.03,2.41-2.14,3.64-3.2c0.54-0.47,1.08-0.95,1.61-1.43c0.12-0.11,0.24-0.17,0.4-0.15c0.16,0.07,0.35-0.01,0.49,0.13
		C26.22,18.37,26.19,18.58,26.09,18.77z"/>
	<path class="st77" d="M20.04,22.94c0,0.3,0,0.6,0,0.9c0,0.36,0,0.72,0.01,1.08c0.01,0.03,0.01,0.05-0.02,0.06
		c-0.08-0.33-0.03-0.67-0.04-1.01c-0.02-0.56-0.01-1.12,0-1.67c0.01-0.35-0.05-0.69-0.13-1.03c-0.08-0.14,0.01-0.22,0.1-0.3
		c0.37-0.34,0.75-0.66,1.1-1.01c0.45-0.19,0.9-0.36,1.3-0.66c0.46-0.35,0.83-0.77,1.05-1.31c0.04-0.04,0.09-0.06,0.14-0.08
		c0.53-0.02,1.05-0.04,1.58,0.01c0.03,0.01,0.06,0.03,0.08,0.06c-0.03,0.17-0.18,0.14-0.28,0.13c-0.25-0.02-0.42,0.1-0.6,0.26
		c-0.79,0.71-1.58,1.42-2.38,2.12c-0.58,0.51-1.15,1.04-1.74,1.54c-0.1,0.08-0.08,0.19-0.09,0.3
		C20.09,22.53,20.15,22.75,20.04,22.94z"/>
	<path class="st39" d="M20.03,24.98c0.01-0.02,0.01-0.04,0.02-0.06c0.22-0.09,0.39-0.28,0.56-0.43c1.02-0.9,2.02-1.82,3.04-2.72
		c0.51-0.46,1.02-0.91,1.54-1.36c0.08-0.07,0.16-0.18,0.3-0.11c-0.82,1.75-2.12,3.06-3.79,4.01c-0.47,0.27-0.99,0.47-1.49,0.67
		C20.16,24.99,20.09,25.08,20.03,24.98z"/>
	<path class="st59" d="M13.5,7.51c0.27-0.14,0.54-0.24,0.84-0.3c0.05,0.18-0.09,0.27-0.19,0.37c-0.46,0.44-0.94,0.85-1.42,1.27
		c-0.22,0.19-0.41,0.43-0.67,0.59c-0.1,0.03-0.2-0.01-0.29,0.03c-0.18,0.01-0.2,0.15-0.23,0.28c-0.07,0.29-0.13,0.58-0.19,0.87
		c-0.95,0.81-1.87,1.67-2.83,2.48c-0.09,0.08-0.18,0.2-0.33,0.1c0.17-0.55,0.39-1.07,0.7-1.56c0.88-0.73,1.72-1.51,2.57-2.26
		c0.62-0.55,1.24-1.09,1.85-1.64C13.36,7.66,13.43,7.59,13.5,7.51z"/>
	<path class="st68" d="M7.73,16.92c-0.11-0.85-0.05-1.7,0.13-2.53c0.97-0.78,1.88-1.64,2.82-2.47c0.18-0.16,0.35-0.32,0.57-0.43
		c0.03-0.01,0.06,0,0.08,0.02c0.04,0.18,0.03,0.36,0.12,0.52c0.18,0.34-0.15,0.47-0.29,0.68c-0.24,0.09-0.38,0.31-0.57,0.47
		c-0.77,0.67-1.49,1.39-2.3,2c-0.48,0.36-0.54,0.79-0.48,1.3C7.82,16.64,7.86,16.8,7.73,16.92z"/>
	<path class="st60" d="M17.93,6.84c0.04,0,0.08,0.01,0.12,0.01c0.12,0.07,0.26-0.01,0.38,0.05c0.12-0.04,0.22,0.1,0.34,0.06
		c0.04,0.16-0.09,0.23-0.18,0.31c-0.64,0.59-1.29,1.16-1.93,1.74c-0.53,0.48-1.08,0.95-1.61,1.43c-0.3,0.14-0.59,0.18-0.85-0.1
		c-0.09-0.17,0.06-0.26,0.15-0.34c1.09-0.97,2.19-1.93,3.27-2.91C17.73,7,17.84,6.94,17.93,6.84z"/>
	<path class="st54" d="M13.31,9.86c-0.26-0.1-0.52-0.19-0.78-0.29c-0.08-0.17,0.05-0.26,0.15-0.35c0.47-0.47,1-0.89,1.49-1.34
		c0.31-0.29,0.66-0.55,0.95-0.86c0.92-0.23,1.84-0.29,2.78-0.17C17.71,7,17.5,6.92,17.3,6.93c-0.12-0.01-0.24,0-0.36-0.01
		c-0.22-0.02-0.38,0.06-0.55,0.22c-0.8,0.72-1.59,1.44-2.41,2.13C13.75,9.46,13.59,9.72,13.31,9.86z"/>
	<path class="st54" d="M11.28,11.52c-0.78,0.69-1.56,1.38-2.34,2.06c-0.28,0.24-0.56,0.47-0.83,0.72c-0.07,0.06-0.15,0.1-0.24,0.09
		c0.05-0.41,0.16-0.81,0.31-1.2C8.41,13.2,8.53,13,8.67,12.88c0.64-0.55,1.25-1.14,1.89-1.68c0.24-0.21,0.44-0.5,0.78-0.58
		c0,0.02,0,0.04,0,0.06C11.26,10.95,11.36,11.24,11.28,11.52z"/>
	<path class="st78" d="M15.06,10.44c0.03-0.2,0.2-0.29,0.33-0.41c0.71-0.64,1.44-1.28,2.15-1.92c0.42-0.38,0.89-0.7,1.24-1.15
		c0.28,0.01,0.54,0.08,0.8,0.18c-0.24,0.41-0.66,0.66-1,0.97c-0.65,0.59-1.31,1.16-1.96,1.75c-0.16,0.14-0.33,0.26-0.48,0.41
		C15.78,10.32,15.42,10.38,15.06,10.44z"/>
	<path class="st73" d="M13.5,7.51c0.01,0.11-0.05,0.17-0.13,0.24c-0.45,0.38-0.88,0.78-1.32,1.16c-0.86,0.76-1.72,1.53-2.59,2.29
		c-0.18,0.16-0.31,0.4-0.59,0.43c0.64-1.23,1.56-2.23,2.67-3.04C12.15,8.15,12.79,7.76,13.5,7.51z"/>
	<path class="st60" d="M7.74,16.42c0-0.01,0-0.02,0-0.03c-0.01-0.85,0.01-0.84,0.65-1.37c0.67-0.55,1.31-1.14,1.96-1.72
		c0.22-0.19,0.43-0.38,0.64-0.58c0.06-0.05,0.11-0.1,0.17,0c-0.37,0.45-0.5,1.01-0.66,1.55c-0.17-0.02-0.27,0.1-0.38,0.2
		c-0.7,0.62-1.38,1.26-2.1,1.86C7.95,16.39,7.88,16.51,7.74,16.42z"/>
	<path class="st62" d="M16.13,10.26c0.14-0.31,0.45-0.46,0.68-0.69c0.45-0.43,0.93-0.83,1.4-1.24c0.45-0.4,0.91-0.8,1.36-1.2
		c0.2,0.03,0.4,0.08,0.58,0.18c0.04,0.16-0.09,0.23-0.18,0.31c-0.63,0.58-1.28,1.13-1.91,1.71c-0.29,0.26-0.59,0.5-0.86,0.78
		c-0.05,0.05-0.09,0.11-0.17,0.11c-0.24,0.01-0.48-0.03-0.72,0.02C16.26,10.26,16.2,10.26,16.13,10.26z"/>
	<path class="st22" d="M17.1,10.19c0.18-0.39,0.57-0.57,0.85-0.85c0.44-0.44,0.94-0.82,1.4-1.24c0.28-0.25,0.6-0.46,0.81-0.78
		c0.28,0.06,0.53,0.17,0.78,0.31c-0.87,0.75-1.73,1.52-2.58,2.28c-0.14,0.12-0.24,0.3-0.45,0.32C17.63,10.2,17.36,10.28,17.1,10.19z
		"/>
	<path class="st32" d="M23.69,17.14c0.04-0.28,0.08-0.56,0.12-0.84c0.03-0.1,0.03-0.21,0.13-0.29c0.7-0.56,1.33-1.2,2.03-1.77
		c0.08-0.06,0.15-0.18,0.28-0.09c0.07,0.23,0.12,0.47,0.12,0.72c-0.18,0.35-0.52,0.54-0.8,0.79c-0.49,0.46-1,0.9-1.51,1.34
		C23.97,17.09,23.87,17.23,23.69,17.14z"/>
	<path class="st49" d="M17.21,6.85c0.23,0,0.45-0.01,0.68-0.01c0.02-0.01,0.03-0.01,0.04,0c-0.13,0.28-0.4,0.43-0.61,0.63
		c-0.44,0.41-0.91,0.8-1.36,1.2c-0.51,0.44-1.01,0.89-1.51,1.34c-0.1,0.09-0.23,0.17-0.24,0.33c-0.16-0.05-0.29-0.14-0.42-0.24
		c-0.05-0.15,0.05-0.25,0.14-0.33c0.78-0.67,1.53-1.36,2.3-2.04C16.57,7.44,16.9,7.15,17.21,6.85z"/>
	<path class="st56" d="M17.21,6.85C17.18,7.06,17,7.16,16.86,7.28c-0.67,0.6-1.35,1.19-2.02,1.79c-0.26,0.23-0.52,0.46-0.79,0.68
		c-0.12,0.1-0.21,0.21-0.26,0.35c-0.16-0.08-0.32-0.16-0.48-0.24c0.31-0.44,0.77-0.74,1.15-1.11c0.43-0.41,0.9-0.77,1.33-1.18
		c0.23-0.22,0.51-0.38,0.7-0.65c0.06-0.08,0.14-0.07,0.21-0.07C16.88,6.85,17.05,6.85,17.21,6.85z"/>
	<path class="st11" d="M23.69,13.79c-0.14-0.32-0.29-0.64-0.43-0.95c0.16-0.34,0.51-0.49,0.75-0.75c0.21-0.23,0.47-0.42,0.71-0.63
		c0.11-0.1,0.23-0.24,0.42-0.12c0.18,0.24,0.32,0.5,0.42,0.78c-0.57,0.45-1.09,0.97-1.65,1.43C23.81,13.62,23.78,13.73,23.69,13.79z
		"/>
	<path class="st10" d="M25.13,11.33c-0.22,0-0.35,0.16-0.5,0.29c-0.46,0.41-0.92,0.81-1.38,1.22c-0.17-0.22-0.35-0.44-0.52-0.66
		c-0.04-0.11,0.05-0.16,0.12-0.22c0.48-0.42,0.96-0.84,1.43-1.27c0.09-0.08,0.17-0.18,0.31-0.13
		C24.82,10.78,24.99,11.05,25.13,11.33z"/>
	<path class="st65" d="M7.74,16.42c0.2-0.04,0.32-0.2,0.45-0.32c0.66-0.58,1.3-1.18,1.96-1.76c0.09-0.08,0.18-0.32,0.34-0.07
		c0,0.04-0.01,0.08-0.01,0.11c-0.05,0.1,0.01,0.22-0.05,0.31c0,0.23-0.01,0.47-0.01,0.7c-0.18-0.03-0.1-0.18-0.14-0.3
		c-0.44,0.39-0.86,0.77-1.3,1.15c-0.32,0.28-0.62,0.59-0.97,0.84c-0.1,0.07-0.15,0.19-0.21,0.28c-0.03,0.02-0.05,0.02-0.07-0.01
		c-0.01-0.15-0.01-0.3-0.02-0.45C7.74,16.75,7.74,16.59,7.74,16.42z"/>
	<path class="st23" d="M17.99,10.2c0.31-0.43,0.76-0.72,1.13-1.08c0.48-0.46,0.99-0.88,1.48-1.32c0.1-0.09,0.18-0.19,0.33-0.17
		c0.18,0.05,0.34,0.13,0.49,0.24c-0.1,0.21-0.31,0.33-0.48,0.47c-0.7,0.62-1.38,1.25-2.08,1.85c-0.06,0.05-0.13,0.09-0.2,0.12
		c-0.16-0.02-0.32-0.04-0.48-0.06C18.12,10.2,18.04,10.26,17.99,10.2z"/>
	<path class="st31" d="M7.8,17.39c0.01-0.13,0.01-0.24,0.14-0.33c0.54-0.38,1-0.87,1.51-1.3c0.29-0.25,0.57-0.51,0.87-0.77
		c0.13,0.14,0,0.31,0.12,0.41c0.02,0.26,0.04,0.52,0.06,0.78c-0.18-0.02-0.08-0.2-0.16-0.28c-0.51,0.41-0.98,0.85-1.5,1.32
		c0.26,0.05,0.46,0.01,0.66,0.04c0.15,0.02,0.16,0.04,0.1,0.18c-0.41,0.08-0.82-0.02-1.23,0.06c-0.16,0.03-0.31,0.04-0.47,0.01
		C7.85,17.48,7.8,17.46,7.8,17.39z"/>
	<path class="st79" d="M23.87,15.28c0-0.19-0.01-0.38-0.01-0.58c-0.06-0.2,0-0.35,0.16-0.5c0.46-0.42,0.94-0.82,1.4-1.24
		c0.11-0.1,0.22-0.28,0.42-0.2c0.07,0.24,0.23,0.45,0.24,0.72c-0.21,0.29-0.51,0.46-0.77,0.7c-0.35,0.33-0.73,0.64-1.09,0.97
		C24.13,15.25,24.03,15.38,23.87,15.28z"/>
	<path class="st55" d="M23.69,17.14c0.37-0.1,0.57-0.42,0.84-0.65c0.63-0.52,1.24-1.08,1.85-1.63c0,0.03,0.01,0.06,0.01,0.1
		c0.06,0.14-0.02,0.3,0.05,0.44c0.06,0.42,0.08,0.85,0.01,1.28c-0.15-0.18-0.06-0.4-0.08-0.6c-0.01-0.07,0.04-0.18-0.05-0.22
		c-0.09-0.04-0.13,0.06-0.19,0.11c-0.5,0.44-0.99,0.88-1.48,1.32c-0.09,0.04-0.18,0.05-0.28,0.07c-0.12-0.02-0.23-0.03-0.35-0.02
		c-0.11-0.05-0.29,0.12-0.34-0.11C23.68,17.2,23.69,17.17,23.69,17.14z"/>
	<path class="st12" d="M11.2,18.28c0.1,0.14,0.21,0.28,0.31,0.42c-0.42,0.42-0.9,0.78-1.31,1.2c-0.18,0.07-0.25,0.18-0.13,0.36
		c-0.25,0.2-0.47,0.45-0.73,0.64c-0.08,0.06-0.16,0.16-0.29,0.08c-0.13-0.16-0.23-0.33-0.3-0.52c-0.03-0.12,0.05-0.19,0.12-0.25
		c0.69-0.59,1.36-1.2,2.04-1.8C11,18.32,11.08,18.24,11.2,18.28z"/>
	<path class="st80" d="M23.87,15.28c0.41-0.13,0.63-0.5,0.94-0.74c0.44-0.34,0.79-0.77,1.27-1.05c0.04,0.22,0.18,0.42,0.17,0.66
		c-0.2,0.04-0.32,0.2-0.45,0.32c-0.62,0.53-1.22,1.08-1.83,1.62c-0.07,0.06-0.09,0.15-0.15,0.21
		C23.83,15.96,23.85,15.62,23.87,15.28z"/>
	<path class="st17" d="M25.84,12.77c-0.4,0.16-0.64,0.52-0.97,0.77c-0.29,0.22-0.53,0.5-0.82,0.74c-0.15,0.12-0.22,0.25-0.2,0.43
		c-0.06-0.31-0.12-0.61-0.17-0.92c-0.02-0.14,0.06-0.22,0.15-0.3c0.48-0.42,0.97-0.84,1.45-1.27c0.08-0.07,0.16-0.12,0.26-0.11
		C25.68,12.32,25.78,12.54,25.84,12.77z"/>
	<path class="st10" d="M13.08,21.8c-0.34-0.06-0.61-0.22-0.84-0.47c-0.03-0.08,0.02-0.13,0.07-0.18c0.41-0.36,0.81-0.73,1.22-1.09
		c0.04-0.04,0.08-0.09,0.15-0.06c0.32,0.17,0.7,0.08,1.02,0.24c-0.26,0.42-0.69,0.68-1.04,1.01C13.48,21.44,13.29,21.63,13.08,21.8z
		"/>
	<path class="st81" d="M9.66,17.36c-0.29-0.11-0.61,0-0.98-0.08c0.57-0.55,1.1-1.06,1.72-1.51c0.09,0.16-0.01,0.3,0.1,0.41
		c0.08,0.36,0.15,0.73,0.24,1.1c0.08,0.3-0.2,0.06-0.28,0.15c-0.13-0.04-0.25-0.02-0.38,0.01C9.93,17.47,9.78,17.5,9.66,17.36z"/>
	<path class="st61" d="M8.52,19.96c-0.13-0.24-0.26-0.49-0.3-0.77C8.19,19,8.37,18.96,8.46,18.86c0.28-0.28,0.59-0.51,0.86-0.81
		c0.1-0.04,0.22-0.05,0.32-0.08c0.28-0.02,0.57-0.04,0.85,0.01c0.13,0.06,0.13,0.16,0.04,0.24C9.87,18.81,9.25,19.45,8.52,19.96z"/>
	<path class="st82" d="M8.52,19.96c0.42-0.44,0.89-0.81,1.34-1.21c0.24-0.22,0.51-0.43,0.71-0.7c0.18-0.16,0.36-0.03,0.53,0.01
		c0.04,0.08,0.07,0.15,0.11,0.23c-0.27,0.11-0.43,0.35-0.64,0.52c-0.59,0.49-1.16,1.01-1.73,1.53c-0.04,0.03-0.06,0.08-0.08,0.12
		C8.64,20.3,8.56,20.14,8.52,19.96z"/>
	<path class="st83" d="M13.08,21.8c0-0.11,0.09-0.18,0.16-0.24c0.49-0.44,0.98-0.88,1.47-1.31c0.22,0.02,0.45,0.05,0.75,0.08
		c-0.44,0.33-0.66,0.74-0.8,1.2c-0.06,0.18-0.3,0.17-0.46,0.23c-0.1,0.04-0.21,0.07-0.32,0.05c-0.23,0.04-0.47,0.04-0.7,0
		C13.14,21.81,13.11,21.8,13.08,21.8z"/>
	<path class="st72" d="M24.59,10.56c-0.26,0.09-0.4,0.32-0.6,0.49c-0.43,0.36-0.84,0.75-1.26,1.13c-0.23-0.22,0.03-0.44,0.01-0.66
		c0.05-0.1,0.02-0.22,0.02-0.32c0-0.11,0.03-0.19,0.11-0.26c0.36-0.28,0.69-0.6,1.03-0.9c0.06-0.05,0.12-0.11,0.21-0.08
		C24.3,10.14,24.48,10.31,24.59,10.56z"/>
	<path class="st21" d="M21.75,8.05c0.13,0.08,0.25,0.16,0.38,0.24c0.09,0.18-0.07,0.24-0.17,0.33C21.52,9,21.1,9.41,20.64,9.78
		c-0.04,0.03-0.07,0.07-0.07,0.13c-0.29,0.18-0.59,0.35-0.87,0.53c-0.12,0.08-0.22,0.04-0.33,0c-0.18-0.05-0.2-0.15-0.06-0.27
		c0.57-0.51,1.13-1.03,1.71-1.52C21.26,8.44,21.44,8.17,21.75,8.05z"/>
	<path class="st84" d="M24.65,17.26c0.46-0.56,1.08-0.96,1.58-1.48c0.04-0.04,0.09-0.08,0.16-0.05c0.07,0.03,0.06,0.1,0.06,0.15
		c0,0.27,0.01,0.54,0.01,0.8c0,0.19-0.01,0.38-0.01,0.57c-0.03,0.07-0.08,0.11-0.15,0.13c-0.14,0.03-0.27,0.02-0.41-0.01
		c-0.33-0.07-0.66-0.01-0.99-0.03C24.81,17.34,24.71,17.34,24.65,17.26z"/>
	<path class="st67" d="M13.69,20.01c-0.43,0.38-0.86,0.77-1.28,1.15c-0.06,0.05-0.11,0.11-0.16,0.17c-0.24-0.2-0.36-0.48-0.54-0.72
		c-0.02-0.05-0.01-0.11,0.03-0.14c0.32-0.27,0.59-0.58,0.95-0.81c0.02-0.02,0.06-0.01,0.09-0.01
		C13.07,19.77,13.38,19.89,13.69,20.01z"/>
	<path class="st85" d="M21.75,8.05c-0.4,0.37-0.79,0.74-1.2,1.1c-0.4,0.36-0.82,0.72-1.23,1.07c-0.12,0.1,0,0.15,0.04,0.21
		c-0.24-0.04-0.48-0.08-0.72-0.12c0.49-0.45,0.96-0.91,1.46-1.34c0.44-0.37,0.82-0.8,1.3-1.11C21.55,7.9,21.66,7.95,21.75,8.05z"/>
	<path class="st59" d="M15.11,7.01c0,0.2-0.17,0.28-0.29,0.39c-0.7,0.63-1.4,1.25-2.1,1.87c-0.09,0.08-0.18,0.16-0.19,0.29
		c-0.16-0.03-0.31-0.06-0.47-0.09c-0.02-0.01-0.03-0.02-0.02-0.03c0.01-0.01,0.01-0.02,0.02-0.02c0.31-0.42,0.76-0.7,1.13-1.07
		c0.38-0.38,0.87-0.65,1.15-1.14C14.58,7.11,14.84,7.04,15.11,7.01z"/>
	<path class="st12" d="M20.58,9.9c-0.13-0.17,0.06-0.21,0.12-0.27c0.44-0.4,0.89-0.78,1.33-1.17c0.05-0.05,0.09-0.1,0.09-0.18
		c0.3,0.12,0.55,0.31,0.77,0.54c-0.12,0.27-0.36,0.43-0.59,0.6C21.7,9.45,21.12,9.63,20.58,9.9z"/>
	<path class="st86" d="M23.45,17.85c0.08-0.18,0.08-0.45,0.4-0.36c0.14-0.06,0.3,0.01,0.44-0.05l-0.01-0.02
		c0.12-0.07,0.25-0.07,0.38-0.08c0.47,0.01,0.93-0.02,1.4,0.02c0.11,0.01,0.23-0.03,0.32,0.06c-0.02,0.19-0.04,0.39-0.06,0.58
		c-0.14,0.12-0.29,0.07-0.45,0.03c-0.06-0.02-0.12-0.02-0.18-0.03c-0.08-0.02-0.17-0.04-0.25-0.06c-0.03-0.01-0.06-0.01-0.09-0.02
		c-0.14-0.03-0.28-0.04-0.43-0.03c-0.39,0-0.78,0-1.17,0C23.66,17.91,23.54,17.94,23.45,17.85z"/>
	<path class="st87" d="M13.14,23.17c0.08,0.01,0.16,0.01,0.24,0.02c0.14,0.04,0.28,0.04,0.42,0c0.18-0.02,0.36-0.04,0.54-0.06
		c0.02,0.09-0.05,0.15-0.1,0.2c-0.43,0.41-0.87,0.82-1.35,1.18c-0.23-0.1-0.45-0.21-0.66-0.36c-0.05-0.11,0.03-0.17,0.09-0.23
		C12.58,23.65,12.86,23.4,13.14,23.17z"/>
	<path class="st13" d="M9.05,20.97c0.25-0.09,0.43-0.27,0.61-0.45c0.12-0.12,0.23-0.25,0.41-0.27c0.21,0.2,0.5,0.29,0.66,0.54
		c-0.37,0.35-0.75,0.67-1.13,1.01C9.39,21.54,9.2,21.27,9.05,20.97z"/>
	<path class="st88" d="M12.76,19.65c-0.37,0.3-0.73,0.61-1.06,0.95c-0.19-0.22-0.42-0.38-0.66-0.55c-0.01-0.03-0.01-0.06,0.01-0.08
		c0.27-0.3,0.57-0.56,0.88-0.81c0.02-0.02,0.06-0.01,0.08,0.01C12.26,19.33,12.51,19.49,12.76,19.65z"/>
	<path class="st89" d="M12.01,19.17c-0.32,0.3-0.65,0.59-0.97,0.89c-0.27-0.12-0.55-0.18-0.84-0.16c0-0.09,0.05-0.15,0.11-0.2
		c0.4-0.33,0.73-0.75,1.2-1C11.68,18.85,11.85,19.01,12.01,19.17z"/>
	<path class="st90" d="M24.11,9.96c-0.41,0.36-0.82,0.72-1.24,1.07c-0.17,0.14,0,0.35-0.14,0.49c0.03-0.46,0-0.92-0.08-1.37
		c0.32-0.23,0.59-0.52,0.92-0.74C23.78,9.56,23.96,9.74,24.11,9.96z"/>
	<path class="st91" d="M12.89,24.52c0.27-0.39,0.67-0.64,1.01-0.95c0.15-0.14,0.28-0.3,0.44-0.43c0.19-0.06,0.28,0.01,0.26,0.21
		c-0.01,0.15-0.01,0.29-0.02,0.44c-0.33,0.37-0.74,0.66-1.08,1.01C13.28,24.72,13.08,24.63,12.89,24.52z"/>
	<path class="st22" d="M10.79,17.56c0.07,0.11,0.22,0.21,0.07,0.37c-0.13,0.08-0.28,0.04-0.41,0.05C10.23,17.99,10,17.95,9.78,18
		c-0.15,0-0.3,0.05-0.45,0.04c-0.08,0.01-0.16,0.02-0.25,0.02c-0.13,0-0.25-0.02-0.37,0.05c-0.17,0.08-0.35,0.1-0.53,0.02
		c-0.06-0.06-0.06-0.14-0.01-0.18c0.19-0.16,0.31-0.4,0.55-0.5c0.48,0.02,0.96-0.06,1.43,0.04c0.02,0.01,0.04,0.01,0.06,0.02
		C10.4,17.57,10.6,17.49,10.79,17.56z"/>
	<path class="st14" d="M9.6,21.8c0.17-0.37,0.55-0.52,0.81-0.81c0.08-0.08,0.17-0.2,0.32-0.2c0.18,0.14,0.31,0.34,0.41,0.54
		c-0.35,0.35-0.7,0.7-1.13,0.97C9.86,22.15,9.72,21.98,9.6,21.8z"/>
	<path class="st67" d="M10.02,22.3c0.35-0.35,0.7-0.71,1.13-0.97c0.12,0.21,0.24,0.42,0.3,0.66c-0.28,0.31-0.6,0.59-0.94,0.82
		C10.32,22.66,10.16,22.49,10.02,22.3z"/>
	<path class="st92" d="M10.5,22.81c0.27-0.32,0.58-0.61,0.94-0.82c0.16,0.22,0.32,0.44,0.48,0.66c-0.24,0.27-0.48,0.56-0.83,0.7
		C10.88,23.19,10.68,23.02,10.5,22.81z"/>
	<path class="st93" d="M21.05,19.95c-0.13,0.3-0.39,0.49-0.63,0.68c-0.18,0.15-0.33,0.34-0.53,0.47c-0.06,0.04-0.04,0.11-0.05,0.16
		c-0.17-0.35-0.36-0.68-0.75-0.95C19.81,20.25,20.43,20.11,21.05,19.95z"/>
	<path class="st94" d="M23.58,9.4c-0.25,0.32-0.53,0.61-0.92,0.74c-0.13-0.23-0.08-0.55-0.35-0.72c0.15-0.24,0.39-0.4,0.59-0.6
		C23.14,8.99,23.38,9.17,23.58,9.4z"/>
	<path class="st95" d="M13.14,23.17c-0.08,0.28-0.37,0.36-0.54,0.57c-0.11,0.15-0.28,0.25-0.37,0.41c-0.21-0.11-0.42-0.22-0.59-0.39
		c-0.04-0.04-0.04-0.09-0.01-0.14c0.18-0.27,0.45-0.44,0.71-0.63c0.05-0.04,0.13-0.04,0.2,0.01C12.74,23.06,12.94,23.11,13.14,23.17
		z"/>
	<path class="st34" d="M13.5,24.79c0.03-0.19,0.19-0.28,0.31-0.38c0.26-0.21,0.46-0.49,0.77-0.63c0.01,0.38,0.01,0.77,0.02,1.15
		c0,0.17-0.04,0.26-0.24,0.18C14.07,25,13.77,24.93,13.5,24.79z"/>
	<path class="st24" d="M15.96,25.34c-0.03,0.18-0.15,0.07-0.23,0.07c-0.09,0-0.12-0.05-0.07-0.14c0.06-0.42,0.01-0.85,0.03-1.27
		c0.02-0.52-0.03-1.04,0.02-1.57c-0.01-0.2,0.04-0.37,0.18-0.52c0.06-0.01,0.09,0.03,0.09,0.08C15.97,23.12,16.02,24.23,15.96,25.34
		z"/>
	<path class="st96" d="M9.3,18.1c-0.08,0.24-0.29,0.36-0.46,0.52C8.64,18.82,8.42,19,8.21,19.19c-0.12-0.3-0.27-0.59-0.23-0.93
		c0.2-0.2,0.48-0.07,0.7-0.17c0.16-0.08,0.32-0.06,0.49-0.06C9.22,18.04,9.27,18.06,9.3,18.1z"/>
	<path class="st83" d="M12.54,23c-0.38,0.16-0.68,0.41-0.9,0.76c-0.2-0.12-0.38-0.25-0.54-0.41c0.29-0.22,0.5-0.53,0.83-0.7
		C12.11,22.81,12.34,22.87,12.54,23z"/>
	<path class="st86" d="M17.44,24.62c0.01,0.26,0.02,0.51,0.05,0.77c0.02,0.18-0.12,0.12-0.2,0.12c-0.07,0-0.21,0.06-0.18-0.1
		c0.08-0.56-0.01-1.13,0.05-1.69c0.06-0.23,0.01-0.47,0.03-0.7c0.01-0.16,0.07-0.22,0.22-0.14c0.04,0.47,0.01,0.94,0.02,1.41
		C17.43,24.4,17.4,24.51,17.44,24.62z"/>
	<path class="st84" d="M18.89,22.64c0.03,0.79,0.04,1.58,0.01,2.37c0.03,0.1,0.04,0.21-0.01,0.31c-0.04,0-0.07,0.01-0.11,0.01
		c-0.13,0.06-0.16-0.02-0.16-0.13c0-0.8,0-1.59,0-2.39C18.63,22.66,18.7,22.55,18.89,22.64z"/>
	<path class="st77" d="M18.89,22.64c-0.18-0.01-0.24,0.08-0.24,0.25c0,0.74,0,1.48,0,2.22c0,0.1-0.01,0.21,0.13,0.22
		c-0.25,0.12-0.19-0.08-0.19-0.19c-0.01-0.71-0.01-1.41-0.01-2.12c0-0.37,0-0.75,0-1.18C18.83,22.11,18.9,22.36,18.89,22.64z"/>
	<path class="st31" d="M8.64,17.51c-0.08,0.17-0.19,0.3-0.34,0.4c-0.08,0.05-0.14,0.1-0.13,0.21c-0.11,0.16-0.21,0.09-0.3-0.03
		c-0.02-0.17-0.04-0.35-0.06-0.52c0.07-0.08,0.18-0.05,0.26-0.09c0.11-0.01,0.23,0.01,0.34-0.03C8.49,17.44,8.58,17.43,8.64,17.51z"
		/>
	<path class="st97" d="M17.39,22.88c-0.16-0.01-0.17,0.08-0.18,0.2c-0.02,0.21,0.07,0.43-0.05,0.63c0-0.61-0.01-1.22-0.01-1.82
		c0-0.05-0.02-0.14,0.06-0.14c0.07,0,0.2-0.08,0.19,0.09C17.43,22.19,17.45,22.54,17.39,22.88z"/>
	<path class="st98" d="M8.64,17.51c-0.08-0.01-0.16-0.01-0.24-0.02c-0.03-0.01-0.05-0.03-0.06-0.05c0.31-0.13,0.64-0.04,0.97-0.07
		c0.12-0.01,0.24,0,0.36,0c0.26,0.04,0.54-0.03,0.8,0.06c-0.1,0.04-0.22-0.03-0.31,0.06C9.64,17.49,9.14,17.5,8.64,17.51z"/>
	<path class="st72" d="M15.96,25.34c0-1.04,0-2.08-0.01-3.11c0-0.1,0.04-0.22-0.06-0.31c0.04-0.06,0.11-0.09,0.11,0.01
		c-0.02,1.12,0.05,2.24-0.01,3.36C15.99,25.31,15.97,25.33,15.96,25.34z"/>
	<path class="st72" d="M15.71,22.44c0,0.88,0.01,1.76,0.01,2.64c0,0.07,0,0.14-0.06,0.19c0-0.83,0-1.66,0-2.49
		C15.66,22.67,15.64,22.55,15.71,22.44z"/>
	<path class="st99" d="M17.39,22.88c0-0.35,0.01-0.69,0.01-1.04c0.08,0.3,0.03,0.61,0.03,0.92c0.01,0.62,0.01,1.23,0.01,1.85
		c-0.11-0.29-0.03-0.58-0.05-0.87C17.38,23.46,17.39,23.17,17.39,22.88z"/>
	<path class="st100" d="M10.44,17.93c0.14,0,0.28,0,0.43,0c0.06,0.08,0.2,0,0.23,0.12c-0.18-0.05-0.36-0.01-0.53-0.01
		c-0.31,0-0.62,0-0.93,0c-0.11,0-0.24,0.11-0.33-0.06c0.15-0.01,0.3-0.01,0.45-0.02C9.98,17.91,10.21,17.98,10.44,17.93z"/>
	<path class="st78" d="M17.99,10.2c0.06,0.01,0.13-0.01,0.18,0.06c-0.62,0-1.24,0-1.86,0c0.25-0.12,0.52-0.02,0.78-0.06
		C17.4,10.19,17.69,10.19,17.99,10.2z"/>
	<path class="st101" d="M23.45,17.85c0.51,0,1.03,0.01,1.54,0.01c0.03,0.03,0.03,0.06-0.02,0.08c-0.49,0.02-0.98-0.03-1.46,0.03
		c-0.04,0.01-0.08,0.01-0.12,0.02C23.41,17.94,23.43,17.9,23.45,17.85z"/>
	<path class="st102" d="M7.87,18.09c0.09,0.11,0.19,0.08,0.3,0.03c0.18-0.04,0.37,0.03,0.54-0.09c0.01,0.01,0.01,0.02,0.02,0.03
		c0.01,0.04,0.01,0.07-0.03,0.09c-0.24,0.04-0.48,0.08-0.72,0.12C7.93,18.21,7.84,18.18,7.87,18.09z"/>
	<path class="st62" d="M13.07,22.24c-0.08-0.01-0.17-0.02-0.17-0.12c0-0.09,0.08-0.11,0.15-0.12c0.08-0.01,0.17,0.02,0.18,0.11
		C13.25,22.22,13.15,22.23,13.07,22.24z"/>
	<path class="st62" d="M12.06,21.69c-0.08-0.01-0.17-0.03-0.17-0.13c0-0.08,0.08-0.11,0.15-0.11c0.08,0,0.17,0.02,0.18,0.11
		C12.23,21.66,12.14,21.68,12.06,21.69z"/>
	<path class="st85" d="M13.65,21.99c0.08,0.01,0.17,0.03,0.17,0.13c0,0.1-0.09,0.12-0.17,0.12c-0.07,0-0.15-0.02-0.15-0.1
		C13.48,22.04,13.57,22.01,13.65,21.99z"/>
	<path class="st85" d="M11.64,20.76c-0.03,0.09-0.1,0.12-0.18,0.11c-0.07,0-0.15-0.03-0.16-0.1c0-0.1,0.08-0.13,0.16-0.13
		C11.54,20.64,11.62,20.67,11.64,20.76z"/>
	<path class="st103" d="M25.84,17.99c0.16,0,0.31,0.09,0.48,0.03c-0.02,0.05-0.04,0.09-0.06,0.14c-0.17-0.05-0.35,0.02-0.51-0.08
		c-0.03,0-0.04-0.02-0.04-0.05C25.74,17.99,25.8,18.02,25.84,17.99z"/>
	<path class="st13" d="M12.65,21.91c-0.04,0.09-0.11,0.11-0.19,0.1c-0.07-0.01-0.17-0.03-0.14-0.14c0.03-0.09,0.11-0.1,0.2-0.09
		C12.58,21.8,12.64,21.83,12.65,21.91z"/>
	<path class="st82" d="M11.76,21.06c0.08,0.02,0.17,0.04,0.15,0.14c-0.02,0.09-0.11,0.1-0.19,0.1c-0.07-0.01-0.15-0.03-0.14-0.12
		C11.59,21.08,11.68,21.06,11.76,21.06z"/>
	<path class="st23" d="M11.32,20.39c-0.01,0.09-0.07,0.12-0.14,0.13c-0.09,0.01-0.19-0.01-0.19-0.12c-0.01-0.08,0.08-0.1,0.15-0.11
		C11.22,20.28,11.29,20.3,11.32,20.39z"/>
	<path class="st65" d="M10.66,20.24c-0.08-0.01-0.17-0.03-0.17-0.13c0-0.09,0.08-0.11,0.15-0.11c0.08,0,0.17,0.02,0.17,0.12
		C10.81,20.21,10.73,20.23,10.66,20.24z"/>
	<path class="st90" d="M14.26,22.14c-0.07-0.02-0.17-0.02-0.16-0.13c0-0.09,0.08-0.1,0.15-0.11c0.08,0,0.17,0,0.17,0.12
		C14.4,22.12,14.32,22.12,14.26,22.14z"/>
	<path class="st59" d="M11.28,11.52c0.03-0.28-0.06-0.56,0.05-0.84c0,0.28,0,0.56,0,0.84C11.32,11.52,11.3,11.52,11.28,11.52z"/>
	<path class="st104" d="M24.63,17.43c-0.11,0-0.23,0-0.34,0c-0.07-0.08-0.17-0.03-0.25-0.06c0-0.03,0.01-0.04,0.03-0.05
		c0.11-0.01,0.23-0.01,0.34-0.02c0.02-0.01,0.05-0.01,0.07,0c0.06,0.02,0.14,0.01,0.18,0.08C24.67,17.41,24.66,17.43,24.63,17.43z"
		/>
	<path class="st10" d="M13.17,21.81c0.23,0,0.47,0,0.7,0C13.64,21.89,13.41,21.89,13.17,21.81z"/>
	<path class="st22" d="M10.79,17.56c-0.2-0.02-0.4,0.05-0.59-0.05C10.4,17.52,10.6,17.46,10.79,17.56z"/>
	<path class="st105" d="M26.38,17.44c-0.09,0-0.18-0.01-0.27-0.01c-0.03,0-0.05-0.02-0.04-0.05c0.08-0.06,0.17,0,0.25-0.05
		c0.04-0.03,0.08-0.05,0.12-0.08C26.46,17.33,26.4,17.38,26.38,17.44z"/>
	<path class="st32" d="M24.07,17.33c-0.01,0.02-0.02,0.03-0.03,0.05c-0.11,0-0.22,0.01-0.32,0c-0.13-0.01-0.07-0.08-0.04-0.14
		C23.78,17.38,23.94,17.29,24.07,17.33z"/>
	<path class="st32" d="M26.44,15.4c-0.11-0.14-0.04-0.29-0.05-0.44C26.46,15.1,26.45,15.25,26.44,15.4z"/>
	<path class="st32" d="M24.29,17.45c-0.14,0.1-0.29,0.04-0.44,0.05C23.99,17.43,24.14,17.44,24.29,17.45z"/>
	<path class="st105" d="M8.06,17.51c-0.08,0.02-0.17,0.04-0.25,0.05c-0.02-0.06-0.08-0.12-0.06-0.19c0.02,0.01,0.03,0.02,0.05,0.03
		c0.02,0.02,0.05,0.03,0.07,0.05C7.92,17.5,8.01,17.43,8.06,17.51z"/>
	<path class="st95" d="M13.8,23.19c-0.14,0.08-0.28,0.08-0.42,0C13.52,23.19,13.66,23.19,13.8,23.19z"/>
	<path class="st49" d="M18.43,6.9c-0.13-0.01-0.26,0.05-0.38-0.05C18.18,6.85,18.31,6.84,18.43,6.9z"/>
	<path class="st60" d="M10.45,14.7c0.01-0.11-0.04-0.22,0.05-0.31C10.49,14.5,10.5,14.6,10.45,14.7z"/>
	<path class="st73" d="M12.06,9.42c0,0.02,0,0.03,0,0.05c-0.1,0-0.2,0-0.3,0C11.85,9.39,11.96,9.43,12.06,9.42z"/>
	<path class="st77" d="M18.89,25.33c0-0.1,0-0.21,0.01-0.31C18.91,25.12,19.01,25.22,18.89,25.33z"/>
	<path class="st106" d="M25.71,18.04c0.01,0.02,0.03,0.03,0.04,0.05c-0.29-0.02-0.43,0.23-0.6,0.38c-1.06,0.92-2.12,1.86-3.17,2.8
		c-0.57,0.51-1.14,1.02-1.71,1.53c-0.07,0.06-0.15,0.1-0.23,0.14c-0.03-0.94-0.01-0.95,0.71-1.53c0.46-0.36,0.89-0.76,1.33-1.15
		c0.68-0.6,1.37-1.21,2.05-1.81c0.01-0.01,0.02-0.01,0.02-0.02c0.24-0.41,0.64-0.44,1.06-0.41c0.08-0.08,0.18-0.05,0.28-0.05
		C25.57,17.98,25.65,17.98,25.71,18.04z"/>
	<path class="st107" d="M23.51,17.97c0.31-0.11,0.64-0.02,0.96-0.05c0.19-0.01,0.37-0.01,0.56-0.01c0.13-0.03,0.27-0.03,0.4,0
		l-0.01,0.02c-0.05,0.15-0.16,0.07-0.25,0.06C24.62,17.98,24.06,17.97,23.51,17.97z"/>
	<path class="st101" d="M25.17,17.98c0.08-0.03,0.18,0.02,0.25-0.06c0.09-0.01,0.18-0.01,0.26,0.04c-0.05,0.07-0.13,0.01-0.19,0.06
		c-0.09,0-0.19,0-0.28,0C25.19,18.01,25.18,18,25.17,17.98z"/>
	<path class="st76" d="M8.06,17.51c-0.06-0.03-0.14,0-0.19-0.06c0.16,0,0.31-0.01,0.47-0.01c0.02,0.02,0.04,0.04,0.06,0.05
		C8.29,17.5,8.17,17.5,8.06,17.51z"/>
	<path class="st32" d="M24.47,17.33c-0.02-0.01-0.04-0.01-0.06-0.02c0.07-0.08,0.16-0.04,0.24-0.05c0.08,0,0.17,0.01,0.25,0.01
		c0.01,0.04-0.01,0.07-0.04,0.09C24.73,17.4,24.6,17.35,24.47,17.33z"/>
	<path class="st108" d="M9.3,17.99c0.1,0.09,0.22,0.03,0.33,0.06c-0.11,0.02-0.22,0.04-0.33,0.06c-0.04,0-0.08-0.01-0.12-0.01
		c-0.04-0.04-0.1-0.01-0.14-0.05c-0.01-0.03,0-0.05,0.03-0.05C9.15,17.98,9.23,17.98,9.3,17.99z"/>
	<path class="st109" d="M24.47,17.33c0.13-0.01,0.27-0.01,0.4-0.02c0.35-0.04,0.71-0.03,1.06,0c0.13,0.01,0.26,0.01,0.39,0.02
		c-0.07,0.07-0.17,0.03-0.25,0.06c-0.47,0.04-0.94,0.03-1.41,0C24.6,17.37,24.52,17.39,24.47,17.33z"/>
	<path class="st105" d="M25.93,17.31c-0.35,0-0.71,0-1.06,0c0.01-0.01,0.02-0.03,0.03-0.04C25.24,17.29,25.59,17.21,25.93,17.31z"/>
	<path class="st32" d="M24.67,17.39c0.47,0,0.94,0,1.41,0c0.01,0.01,0.03,0.03,0.04,0.04c-0.5,0-0.99,0-1.49,0
		C24.64,17.42,24.65,17.4,24.67,17.39z"/>
	<path class="st32" d="M25.43,17.91c-0.13,0-0.27,0-0.4,0c-0.01-0.01-0.02-0.03-0.03-0.04C25.14,17.87,25.29,17.81,25.43,17.91z"/>
	<path class="st76" d="M25.49,18.03c0.05-0.07,0.13-0.03,0.19-0.06c0.06,0.01,0.11,0.01,0.17,0.02c-0.04,0.02-0.09,0.04-0.13,0.05
		C25.64,18.04,25.56,18.03,25.49,18.03z"/>
	<path class="st108" d="M10.44,17.93c-0.22,0.1-0.45,0.03-0.68,0.04C9.98,17.9,10.21,17.93,10.44,17.93z"/>
	<path class="st31" d="M9.07,17.98C9.06,18,9.05,18.01,9.04,18.02c-0.11,0.06-0.22,0.07-0.34,0.02c0,0,0.01-0.02,0.01-0.02
		C8.82,17.93,8.95,17.99,9.07,17.98z"/>
	<path class="st102" d="M8.7,18.05c0.11-0.01,0.23-0.01,0.34-0.02c0.05,0.02,0.09,0.04,0.14,0.07c-0.16,0.02-0.32,0.04-0.48,0.06
		C8.7,18.11,8.7,18.08,8.7,18.05z"/>
</g>
</svg>
