<?xml version="1.0" encoding="utf-8"?>
<!-- Generator: Adobe Illustrator 25.2.1, SVG Export Plug-In . SVG Version: 6.00 Build 0)  -->
<svg version="1.1" id="Layer_1" xmlns="http://www.w3.org/2000/svg" xmlns:xlink="http://www.w3.org/1999/xlink" x="0px" y="0px"
	 viewBox="0 0 45.11 46.89" style="enable-background:new 0 0 45.11 46.89;" xml:space="preserve">
<style type="text/css">
	.st0{opacity:0.8;fill:url(#SVGID_1_);}
	.st1{fill:url(#SVGID_2_);}
	.st2{fill:#FFFFFF;}
</style>
<g>
	<radialGradient id="SVGID_1_" cx="22.5556" cy="24.496" r="21.5" gradientUnits="userSpaceOnUse">
		<stop  offset="0" style="stop-color:#000057"/>
		<stop  offset="0.2482" style="stop-color:#4C4C89;stop-opacity:0.7518"/>
		<stop  offset="0.5193" style="stop-color:#9898BB;stop-opacity:0.4807"/>
		<stop  offset="0.744" style="stop-color:#D0D0E0;stop-opacity:0.256"/>
		<stop  offset="0.9103" style="stop-color:#F2F2F6;stop-opacity:0.0897"/>
		<stop  offset="1" style="stop-color:#FFFFFF;stop-opacity:0"/>
	</radialGradient>
	<circle class="st0" cx="22.56" cy="24.5" r="21.5"/>
	
		<linearGradient id="SVGID_2_" gradientUnits="userSpaceOnUse" x1="-5.6202" y1="-231.0085" x2="19.1285" y2="-206.2598" gradientTransform="matrix(0 1 -1 0 -201.3192 8.7601)">
		<stop  offset="0" style="stop-color:#007BB8"/>
		<stop  offset="1" style="stop-color:#0044E9"/>
	</linearGradient>
	<path class="st1" d="M2.69,22.49V8.54c0-4.21,3.44-7.65,7.65-7.65h13.94c4.21,0,7.65,3.44,7.65,7.65l0,13.94
		c0,4.21-3.44,7.65-7.65,7.65l-13.94,0C6.14,30.14,2.69,26.69,2.69,22.49z"/>
	<path class="st2" d="M11.18,12.79h2.83v9.1h-2.83V12.79z M12.6,8.27c0.91,0,1.64,0.73,1.64,1.64c0,0.9-0.73,1.64-1.64,1.64
		c-0.91,0-1.64-0.74-1.64-1.64C10.96,9.01,11.69,8.27,12.6,8.27"/>
	<path class="st2" d="M15.79,12.79h2.71v1.24h0.04c0.38-0.72,1.3-1.47,2.68-1.47c2.86,0,3.39,1.88,3.39,4.33v4.99h-2.83v-4.42
		c0-1.06-0.02-2.41-1.47-2.41c-1.47,0-1.7,1.15-1.7,2.34v4.5h-2.83V12.79z"/>
</g>
</svg>
